<svg xmlns="http://www.w3.org/2000/svg" xmlns:xlink="http://www.w3.org/1999/xlink" version="1.1" class="marks" width="802" height="742" viewBox="0 0 802 742"><rect width="802" height="742" fill="white"/><g fill="none" stroke-miterlimit="10" transform="translate(120,22)"><g class="mark-group role-frame root" role="graphics-object" aria-roledescription="group mark container"><g transform="translate(0,0)"><path class="background" aria-hidden="true" d="M0.5,0.5h600v600h-600Z" stroke="#ddd"/><g><g class="mark-group role-axis" role="graphics-symbol" aria-roledescription="axis" aria-label="X-axis for a discrete scale with 16 values: Airport_fee, DOLocationID, PULocationID, RatecodeID, VendorID, ending with trip_distance"><g transform="translate(0.5,600.5)"><path class="background" aria-hidden="true" d="M0,0h0v0h0Z" pointer-events="none"/><g><g class="mark-rule role-axis-tick" pointer-events="none"><line transform="translate(19,0)" x2="0" y2="5" stroke="#888" stroke-width="1" opacity="1"/><line transform="translate(56,0)" x2="0" y2="5" stroke="#888" stroke-width="1" opacity="1"/><line transform="translate(94,0)" x2="0" y2="5" stroke="#888" stroke-width="1" opacity="1"/><line transform="translate(131,0)" x2="0" y2="5" stroke="#888" stroke-width="1" opacity="1"/><line transform="translate(169,0)" x2="0" y2="5" stroke="#888" stroke-width="1" opacity="1"/><line transform="translate(206,0)" x2="0" y2="5" stroke="#888" stroke-width="1" opacity="1"/><line transform="translate(244,0)" x2="0" y2="5" stroke="#888" stroke-width="1" opacity="1"/><line transform="translate(281,0)" x2="0" y2="5" stroke="#888" stroke-width="1" opacity="1"/><line transform="translate(319,0)" x2="0" y2="5" stroke="#888" stroke-width="1" opacity="1"/><line transform="translate(356,0)" x2="0" y2="5" stroke="#888" stroke-width="1" opacity="1"/><line transform="translate(394,0)" x2="0" y2="5" stroke="#888" stroke-width="1" opacity="1"/><line transform="translate(431,0)" x2="0" y2="5" stroke="#888" stroke-width="1" opacity="1"/><line transform="translate(469,0)" x2="0" y2="5" stroke="#888" stroke-width="1" opacity="1"/><line transform="translate(506,0)" x2="0" y2="5" stroke="#888" stroke-width="1" opacity="1"/><line transform="translate(544,0)" x2="0" y2="5" stroke="#888" stroke-width="1" opacity="1"/><line transform="translate(581,0)" x2="0" y2="5" stroke="#888" stroke-width="1" opacity="1"/></g><g class="mark-text role-axis-label" pointer-events="none"><text text-anchor="end" transform="translate(18.75,7) rotate(270) translate(0,3)" font-family="sans-serif" font-size="10px" fill="#000" opacity="1">Airport_fee</text><text text-anchor="end" transform="translate(56.25,7) rotate(270) translate(0,3)" font-family="sans-serif" font-size="10px" fill="#000" opacity="1">DOLocationID</text><text text-anchor="end" transform="translate(93.75,7) rotate(270) translate(0,3)" font-family="sans-serif" font-size="10px" fill="#000" opacity="1">PULocationID</text><text text-anchor="end" transform="translate(131.25,7) rotate(270) translate(0,3)" font-family="sans-serif" font-size="10px" fill="#000" opacity="1">RatecodeID</text><text text-anchor="end" transform="translate(168.75,7) rotate(270) translate(0,3)" font-family="sans-serif" font-size="10px" fill="#000" opacity="1">VendorID</text><text text-anchor="end" transform="translate(206.25,7) rotate(270) translate(0,3)" font-family="sans-serif" font-size="10px" fill="#000" opacity="1">congestion_surcharge</text><text text-anchor="end" transform="translate(243.75,7) rotate(270) translate(0,3)" font-family="sans-serif" font-size="10px" fill="#000" opacity="1">extra</text><text text-anchor="end" transform="translate(281.25,7) rotate(270) translate(0,3)" font-family="sans-serif" font-size="10px" fill="#000" opacity="1">fare_amount</text><text text-anchor="end" transform="translate(318.75,7) rotate(270) translate(0,3)" font-family="sans-serif" font-size="10px" fill="#000" opacity="1">improvement_surcharge</text><text text-anchor="end" transform="translate(356.25,7) rotate(270) translate(0,3)" font-family="sans-serif" font-size="10px" fill="#000" opacity="1">mta_tax</text><text text-anchor="end" transform="translate(393.75,7) rotate(270) translate(0,3)" font-family="sans-serif" font-size="10px" fill="#000" opacity="1">passenger_count</text><text text-anchor="end" transform="translate(431.25,7) rotate(270) translate(0,3)" font-family="sans-serif" font-size="10px" fill="#000" opacity="1">payment_type</text><text text-anchor="end" transform="translate(468.75,7) rotate(270) translate(0,3)" font-family="sans-serif" font-size="10px" fill="#000" opacity="1">tip_amount</text><text text-anchor="end" transform="translate(506.25,7) rotate(270) translate(0,3)" font-family="sans-serif" font-size="10px" fill="#000" opacity="1">tolls_amount</text><text text-anchor="end" transform="translate(543.75,7) rotate(270) translate(0,3)" font-family="sans-serif" font-size="10px" fill="#000" opacity="1">total_amount</text><text text-anchor="end" transform="translate(581.25,7) rotate(270) translate(0,3)" font-family="sans-serif" font-size="10px" fill="#000" opacity="1">trip_distance</text></g><g class="mark-rule role-axis-domain" pointer-events="none"><line transform="translate(0,0)" x2="600" y2="0" stroke="#888" stroke-width="1" opacity="1"/></g></g><path class="foreground" aria-hidden="true" d="" pointer-events="none" display="none"/></g></g><g class="mark-group role-axis" role="graphics-symbol" aria-roledescription="axis" aria-label="Y-axis for a discrete scale with 16 values: Airport_fee, DOLocationID, PULocationID, RatecodeID, VendorID, ending with trip_distance"><g transform="translate(0.5,0.5)"><path class="background" aria-hidden="true" d="M0,0h0v0h0Z" pointer-events="none"/><g><g class="mark-rule role-axis-tick" pointer-events="none"><line transform="translate(0,19)" x2="-5" y2="0" stroke="#888" stroke-width="1" opacity="1"/><line transform="translate(0,56)" x2="-5" y2="0" stroke="#888" stroke-width="1" opacity="1"/><line transform="translate(0,94)" x2="-5" y2="0" stroke="#888" stroke-width="1" opacity="1"/><line transform="translate(0,131)" x2="-5" y2="0" stroke="#888" stroke-width="1" opacity="1"/><line transform="translate(0,169)" x2="-5" y2="0" stroke="#888" stroke-width="1" opacity="1"/><line transform="translate(0,206)" x2="-5" y2="0" stroke="#888" stroke-width="1" opacity="1"/><line transform="translate(0,244)" x2="-5" y2="0" stroke="#888" stroke-width="1" opacity="1"/><line transform="translate(0,281)" x2="-5" y2="0" stroke="#888" stroke-width="1" opacity="1"/><line transform="translate(0,319)" x2="-5" y2="0" stroke="#888" stroke-width="1" opacity="1"/><line transform="translate(0,356)" x2="-5" y2="0" stroke="#888" stroke-width="1" opacity="1"/><line transform="translate(0,394)" x2="-5" y2="0" stroke="#888" stroke-width="1" opacity="1"/><line transform="translate(0,431)" x2="-5" y2="0" stroke="#888" stroke-width="1" opacity="1"/><line transform="translate(0,469)" x2="-5" y2="0" stroke="#888" stroke-width="1" opacity="1"/><line transform="translate(0,506)" x2="-5" y2="0" stroke="#888" stroke-width="1" opacity="1"/><line transform="translate(0,544)" x2="-5" y2="0" stroke="#888" stroke-width="1" opacity="1"/><line transform="translate(0,581)" x2="-5" y2="0" stroke="#888" stroke-width="1" opacity="1"/></g><g class="mark-text role-axis-label" pointer-events="none"><text text-anchor="end" transform="translate(-7,21.75)" font-family="sans-serif" font-size="10px" fill="#000" opacity="1">Airport_fee</text><text text-anchor="end" transform="translate(-7,59.25)" font-family="sans-serif" font-size="10px" fill="#000" opacity="1">DOLocationID</text><text text-anchor="end" transform="translate(-7,96.75)" font-family="sans-serif" font-size="10px" fill="#000" opacity="1">PULocationID</text><text text-anchor="end" transform="translate(-7,134.25)" font-family="sans-serif" font-size="10px" fill="#000" opacity="1">RatecodeID</text><text text-anchor="end" transform="translate(-7,171.75)" font-family="sans-serif" font-size="10px" fill="#000" opacity="1">VendorID</text><text text-anchor="end" transform="translate(-7,209.25)" font-family="sans-serif" font-size="10px" fill="#000" opacity="1">congestion_surcharge</text><text text-anchor="end" transform="translate(-7,246.75)" font-family="sans-serif" font-size="10px" fill="#000" opacity="1">extra</text><text text-anchor="end" transform="translate(-7,284.25)" font-family="sans-serif" font-size="10px" fill="#000" opacity="1">fare_amount</text><text text-anchor="end" transform="translate(-7,321.75)" font-family="sans-serif" font-size="10px" fill="#000" opacity="1">improvement_surcharge</text><text text-anchor="end" transform="translate(-7,359.25)" font-family="sans-serif" font-size="10px" fill="#000" opacity="1">mta_tax</text><text text-anchor="end" transform="translate(-7,396.75)" font-family="sans-serif" font-size="10px" fill="#000" opacity="1">passenger_count</text><text text-anchor="end" transform="translate(-7,434.25)" font-family="sans-serif" font-size="10px" fill="#000" opacity="1">payment_type</text><text text-anchor="end" transform="translate(-7,471.75)" font-family="sans-serif" font-size="10px" fill="#000" opacity="1">tip_amount</text><text text-anchor="end" transform="translate(-7,509.25)" font-family="sans-serif" font-size="10px" fill="#000" opacity="1">tolls_amount</text><text text-anchor="end" transform="translate(-7,546.75)" font-family="sans-serif" font-size="10px" fill="#000" opacity="1">total_amount</text><text text-anchor="end" transform="translate(-7,584.25)" font-family="sans-serif" font-size="10px" fill="#000" opacity="1">trip_distance</text></g><g class="mark-rule role-axis-domain" pointer-events="none"><line transform="translate(0,0)" x2="0" y2="600" stroke="#888" stroke-width="1" opacity="1"/></g></g><path class="foreground" aria-hidden="true" d="" pointer-events="none" display="none"/></g></g><g class="mark-symbol role-mark marks" role="graphics-symbol" aria-roledescription="symbol mark container"><path transform="translate(168.75,393.75)" d="M2.942,0A2.942,2.942,0,1,1,-2.942,0A2.942,2.942,0,1,1,2.942,0" fill="rgb(228, 235, 238)" stroke-width="2" opacity="0.7"/><path transform="translate(168.75,581.25)" d="M2.005,0A2.005,2.005,0,1,1,-2.005,0A2.005,2.005,0,1,1,2.005,0" fill="rgb(237, 237, 238)" stroke-width="2" opacity="0.7"/><path transform="translate(168.75,131.25)" d="M1.889,0A1.889,1.889,0,1,1,-1.889,0A1.889,1.889,0,1,1,1.889,0" fill="rgb(237, 238, 238)" stroke-width="2" opacity="0.7"/><path transform="translate(168.75,93.75)" d="M1.565,0A1.565,1.565,0,1,1,-1.565,0A1.565,1.565,0,1,1,1.565,0" fill="rgb(243, 237, 235)" stroke-width="2" opacity="0.7"/><path transform="translate(168.75,56.25)" d="M1.286,0A1.286,1.286,0,1,1,-1.286,0A1.286,1.286,0,1,1,1.286,0" fill="rgb(242, 238, 237)" stroke-width="2" opacity="0.7"/><path transform="translate(168.75,431.25)" d="M1.465,0A1.465,1.465,0,1,1,-1.465,0A1.465,1.465,0,1,1,1.465,0" fill="rgb(243, 238, 236)" stroke-width="2" opacity="0.7"/><path transform="translate(168.75,281.25)" d="M2.237,0A2.237,2.237,0,1,1,-2.237,0A2.237,2.237,0,1,1,2.237,0" fill="rgb(235, 237, 238)" stroke-width="2" opacity="0.7"/><path transform="translate(168.75,243.75)" d="M7.391,0A7.391,7.391,0,1,1,-7.391,0A7.391,7.391,0,1,1,7.391,0" fill="rgb(223, 116, 94)" stroke-width="2" opacity="0.7"/><path transform="translate(168.75,356.25)" d="M1.192,0A1.192,1.192,0,1,1,-1.192,0A1.192,1.192,0,1,1,1.192,0" fill="rgb(241, 239, 238)" stroke-width="2" opacity="0.7"/><path transform="translate(168.75,468.75)" d="M1.816,0A1.816,1.816,0,1,1,-1.816,0A1.816,1.816,0,1,1,1.816,0" fill="rgb(238, 238, 238)" stroke-width="2" opacity="0.7"/><path transform="translate(168.75,506.25)" d="M1.731,0A1.731,1.731,0,1,1,-1.731,0A1.731,1.731,0,1,1,1.731,0" fill="rgb(238, 238, 238)" stroke-width="2" opacity="0.7"/><path transform="translate(168.75,318.75)" d="M1.716,0A1.716,1.716,0,1,1,-1.716,0A1.716,1.716,0,1,1,1.716,0" fill="rgb(239, 238, 238)" stroke-width="2" opacity="0.7"/><path transform="translate(168.75,543.75)" d="M2.304,0A2.304,2.304,0,1,1,-2.304,0A2.304,2.304,0,1,1,2.304,0" fill="rgb(234, 237, 238)" stroke-width="2" opacity="0.7"/><path transform="translate(168.75,206.25)" d="M1.392,0A1.392,1.392,0,1,1,-1.392,0A1.392,1.392,0,1,1,1.392,0" fill="rgb(242, 238, 236)" stroke-width="2" opacity="0.7"/><path transform="translate(168.75,18.75)" d="M2.093,0A2.093,2.093,0,1,1,-2.093,0A2.093,2.093,0,1,1,2.093,0" fill="rgb(236, 237, 238)" stroke-width="2" opacity="0.7"/><path transform="translate(393.75,168.75)" d="M2.942,0A2.942,2.942,0,1,1,-2.942,0A2.942,2.942,0,1,1,2.942,0" fill="rgb(228, 235, 238)" stroke-width="2" opacity="0.7"/><path transform="translate(393.75,581.25)" d="M2.031,0A2.031,2.031,0,1,1,-2.031,0A2.031,2.031,0,1,1,2.031,0" fill="rgb(236, 237, 238)" stroke-width="2" opacity="0.7"/><path transform="translate(393.75,131.25)" d="M2.579,0A2.579,2.579,0,1,1,-2.579,0A2.579,2.579,0,1,1,2.579,0" fill="rgb(232, 236, 238)" stroke-width="2" opacity="0.7"/><path transform="translate(393.75,93.75)" d="M1.551,0A1.551,1.551,0,1,1,-1.551,0A1.551,1.551,0,1,1,1.551,0" fill="rgb(243, 237, 235)" stroke-width="2" opacity="0.7"/><path transform="translate(393.75,56.25)" d="M1.487,0A1.487,1.487,0,1,1,-1.487,0A1.487,1.487,0,1,1,1.487,0" fill="rgb(243, 238, 235)" stroke-width="2" opacity="0.7"/><path transform="translate(393.75,431.25)" d="M1.877,0A1.877,1.877,0,1,1,-1.877,0A1.877,1.877,0,1,1,1.877,0" fill="rgb(237, 238, 238)" stroke-width="2" opacity="0.7"/><path transform="translate(393.75,281.25)" d="M2.225,0A2.225,2.225,0,1,1,-2.225,0A2.225,2.225,0,1,1,2.225,0" fill="rgb(235, 237, 238)" stroke-width="2" opacity="0.7"/><path transform="translate(393.75,243.75)" d="M2.433,0A2.433,2.433,0,1,1,-2.433,0A2.433,2.433,0,1,1,2.433,0" fill="rgb(244, 233, 228)" stroke-width="2" opacity="0.7"/><path transform="translate(393.75,356.25)" d="M2.035,0A2.035,2.035,0,1,1,-2.035,0A2.035,2.035,0,1,1,2.035,0" fill="rgb(244, 235, 231)" stroke-width="2" opacity="0.7"/><path transform="translate(393.75,468.75)" d="M1.003,0A1.003,1.003,0,1,1,-1.003,0A1.003,1.003,0,1,1,1.003,0" fill="rgb(242, 239, 238)" stroke-width="2" opacity="0.7"/><path transform="translate(393.75,506.25)" d="M2.17,0A2.17,2.17,0,1,1,-2.17,0A2.17,2.17,0,1,1,2.17,0" fill="rgb(235, 237, 238)" stroke-width="2" opacity="0.7"/><path transform="translate(393.75,318.75)" d="M1.209,0A1.209,1.209,0,1,1,-1.209,0A1.209,1.209,0,1,1,1.209,0" fill="rgb(241, 239, 238)" stroke-width="2" opacity="0.7"/><path transform="translate(393.75,543.75)" d="M2.078,0A2.078,2.078,0,1,1,-2.078,0A2.078,2.078,0,1,1,2.078,0" fill="rgb(236, 237, 238)" stroke-width="2" opacity="0.7"/><path transform="translate(393.75,206.25)" d="M1.116,0A1.116,1.116,0,1,1,-1.116,0A1.116,1.116,0,1,1,1.116,0" fill="rgb(242, 239, 238)" stroke-width="2" opacity="0.7"/><path transform="translate(393.75,18.75)" d="M1.892,0A1.892,1.892,0,1,1,-1.892,0A1.892,1.892,0,1,1,1.892,0" fill="rgb(237, 238, 238)" stroke-width="2" opacity="0.7"/><path transform="translate(581.25,168.75)" d="M2.005,0A2.005,2.005,0,1,1,-2.005,0A2.005,2.005,0,1,1,2.005,0" fill="rgb(237, 237, 238)" stroke-width="2" opacity="0.7"/><path transform="translate(581.25,393.75)" d="M2.031,0A2.031,2.031,0,1,1,-2.031,0A2.031,2.031,0,1,1,2.031,0" fill="rgb(236, 237, 238)" stroke-width="2" opacity="0.7"/><path transform="translate(581.25,131.25)" d="M4.869,0A4.869,4.869,0,1,1,-4.869,0A4.869,4.869,0,1,1,4.869,0" fill="rgb(196, 222, 235)" stroke-width="2" opacity="0.7"/><path transform="translate(581.25,93.75)" d="M3.863,0A3.863,3.863,0,1,1,-3.863,0A3.863,3.863,0,1,1,3.863,0" fill="rgb(249, 223, 209)" stroke-width="2" opacity="0.7"/><path transform="translate(581.25,56.25)" d="M3.293,0A3.293,3.293,0,1,1,-3.293,0A3.293,3.293,0,1,1,3.293,0" fill="rgb(247, 228, 218)" stroke-width="2" opacity="0.7"/><path transform="translate(581.25,431.25)" d="M2.393,0A2.393,2.393,0,1,1,-2.393,0A2.393,2.393,0,1,1,2.393,0" fill="rgb(244, 234, 228)" stroke-width="2" opacity="0.7"/><path transform="translate(581.25,281.25)" d="M9.047,0A9.047,9.047,0,1,1,-9.047,0A9.047,9.047,0,1,1,9.047,0" fill="rgb(32, 96, 155)" stroke-width="2" opacity="0.7"/><path transform="translate(581.25,243.75)" d="M3.489,0A3.489,3.489,0,1,1,-3.489,0A3.489,3.489,0,1,1,3.489,0" fill="rgb(222, 233, 239)" stroke-width="2" opacity="0.7"/><path transform="translate(581.25,356.25)" d="M1.475,0A1.475,1.475,0,1,1,-1.475,0A1.475,1.475,0,1,1,1.475,0" fill="rgb(243, 238, 236)" stroke-width="2" opacity="0.7"/><path transform="translate(581.25,468.75)" d="M6.474,0A6.474,6.474,0,1,1,-6.474,0A6.474,6.474,0,1,1,6.474,0" fill="rgb(138, 190, 219)" stroke-width="2" opacity="0.7"/><path transform="translate(581.25,506.25)" d="M6.069,0A6.069,6.069,0,1,1,-6.069,0A6.069,6.069,0,1,1,6.069,0" fill="rgb(157, 202, 225)" stroke-width="2" opacity="0.7"/><path transform="translate(581.25,318.75)" d="M1.514,0A1.514,1.514,0,1,1,-1.514,0A1.514,1.514,0,1,1,1.514,0" fill="rgb(240, 238, 238)" stroke-width="2" opacity="0.7"/><path transform="translate(581.25,543.75)" d="M8.907,0A8.907,8.907,0,1,1,-8.907,0A8.907,8.907,0,1,1,8.907,0" fill="rgb(36, 103, 161)" stroke-width="2" opacity="0.7"/><path transform="translate(581.25,206.25)" d="M4.093,0A4.093,4.093,0,1,1,-4.093,0A4.093,4.093,0,1,1,4.093,0" fill="rgb(250, 221, 205)" stroke-width="2" opacity="0.7"/><path transform="translate(581.25,18.75)" d="M6.309,0A6.309,6.309,0,1,1,-6.309,0A6.309,6.309,0,1,1,6.309,0" fill="rgb(146, 195, 221)" stroke-width="2" opacity="0.7"/><path transform="translate(131.25,168.75)" d="M1.889,0A1.889,1.889,0,1,1,-1.889,0A1.889,1.889,0,1,1,1.889,0" fill="rgb(237, 238, 238)" stroke-width="2" opacity="0.7"/><path transform="translate(131.25,393.75)" d="M2.579,0A2.579,2.579,0,1,1,-2.579,0A2.579,2.579,0,1,1,2.579,0" fill="rgb(232, 236, 238)" stroke-width="2" opacity="0.7"/><path transform="translate(131.25,581.25)" d="M4.869,0A4.869,4.869,0,1,1,-4.869,0A4.869,4.869,0,1,1,4.869,0" fill="rgb(196, 222, 235)" stroke-width="2" opacity="0.7"/><path transform="translate(131.25,93.75)" d="M3.625,0A3.625,3.625,0,1,1,-3.625,0A3.625,3.625,0,1,1,3.625,0" fill="rgb(248, 225, 213)" stroke-width="2" opacity="0.7"/><path transform="translate(131.25,56.25)" d="M1.981,0A1.981,1.981,0,1,1,-1.981,0A1.981,1.981,0,1,1,1.981,0" fill="rgb(243, 236, 232)" stroke-width="2" opacity="0.7"/><path transform="translate(131.25,431.25)" d="M1.402,0A1.402,1.402,0,1,1,-1.402,0A1.402,1.402,0,1,1,1.402,0" fill="rgb(240, 238, 238)" stroke-width="2" opacity="0.7"/><path transform="translate(131.25,281.25)" d="M5.621,0A5.621,5.621,0,1,1,-5.621,0A5.621,5.621,0,1,1,5.621,0" fill="rgb(172, 210, 229)" stroke-width="2" opacity="0.7"/><path transform="translate(131.25,243.75)" d="M2.71,0A2.71,2.71,0,1,1,-2.71,0A2.71,2.71,0,1,1,2.71,0" fill="rgb(245, 232, 225)" stroke-width="2" opacity="0.7"/><path transform="translate(131.25,356.25)" d="M6.151,0A6.151,6.151,0,1,1,-6.151,0A6.151,6.151,0,1,1,6.151,0" fill="rgb(243, 170, 142)" stroke-width="2" opacity="0.7"/><path transform="translate(131.25,468.75)" d="M3.97,0A3.97,3.97,0,1,1,-3.97,0A3.97,3.97,0,1,1,3.97,0" fill="rgb(216, 231, 239)" stroke-width="2" opacity="0.7"/><path transform="translate(131.25,506.25)" d="M6.897,0A6.897,6.897,0,1,1,-6.897,0A6.897,6.897,0,1,1,6.897,0" fill="rgb(118, 178, 212)" stroke-width="2" opacity="0.7"/><path transform="translate(131.25,318.75)" d="M1.93,0A1.93,1.93,0,1,1,-1.93,0A1.93,1.93,0,1,1,1.93,0" fill="rgb(243, 236, 232)" stroke-width="2" opacity="0.7"/><path transform="translate(131.25,543.75)" d="M5.588,0A5.588,5.588,0,1,1,-5.588,0A5.588,5.588,0,1,1,5.588,0" fill="rgb(173, 210, 229)" stroke-width="2" opacity="0.7"/><path transform="translate(131.25,206.25)" d="M4.277,0A4.277,4.277,0,1,1,-4.277,0A4.277,4.277,0,1,1,4.277,0" fill="rgb(251, 220, 202)" stroke-width="2" opacity="0.7"/><path transform="translate(131.25,18.75)" d="M6.227,0A6.227,6.227,0,1,1,-6.227,0A6.227,6.227,0,1,1,6.227,0" fill="rgb(150, 197, 222)" stroke-width="2" opacity="0.7"/><path transform="translate(93.75,168.75)" d="M1.565,0A1.565,1.565,0,1,1,-1.565,0A1.565,1.565,0,1,1,1.565,0" fill="rgb(243, 237, 235)" stroke-width="2" opacity="0.7"/><path transform="translate(93.75,393.75)" d="M1.551,0A1.551,1.551,0,1,1,-1.551,0A1.551,1.551,0,1,1,1.551,0" fill="rgb(243, 237, 235)" stroke-width="2" opacity="0.7"/><path transform="translate(93.75,581.25)" d="M3.863,0A3.863,3.863,0,1,1,-3.863,0A3.863,3.863,0,1,1,3.863,0" fill="rgb(249, 223, 209)" stroke-width="2" opacity="0.7"/><path transform="translate(93.75,131.25)" d="M3.625,0A3.625,3.625,0,1,1,-3.625,0A3.625,3.625,0,1,1,3.625,0" fill="rgb(248, 225, 213)" stroke-width="2" opacity="0.7"/><path transform="translate(93.75,56.25)" d="M2.865,0A2.865,2.865,0,1,1,-2.865,0A2.865,2.865,0,1,1,2.865,0" fill="rgb(229, 235, 238)" stroke-width="2" opacity="0.7"/><path transform="translate(93.75,431.25)" d="M1.832,0A1.832,1.832,0,1,1,-1.832,0A1.832,1.832,0,1,1,1.832,0" fill="rgb(243, 236, 233)" stroke-width="2" opacity="0.7"/><path transform="translate(93.75,281.25)" d="M3.902,0A3.902,3.902,0,1,1,-3.902,0A3.902,3.902,0,1,1,3.902,0" fill="rgb(249, 223, 209)" stroke-width="2" opacity="0.7"/><path transform="translate(93.75,243.75)" d="M2.454,0A2.454,2.454,0,1,1,-2.454,0A2.454,2.454,0,1,1,2.454,0" fill="rgb(245, 233, 228)" stroke-width="2" opacity="0.7"/><path transform="translate(93.75,356.25)" d="M1.61,0A1.61,1.61,0,1,1,-1.61,0A1.61,1.61,0,1,1,1.61,0" fill="rgb(239, 238, 238)" stroke-width="2" opacity="0.7"/><path transform="translate(93.75,468.75)" d="M2.631,0A2.631,2.631,0,1,1,-2.631,0A2.631,2.631,0,1,1,2.631,0" fill="rgb(245, 232, 226)" stroke-width="2" opacity="0.7"/><path transform="translate(93.75,506.25)" d="M3.827,0A3.827,3.827,0,1,1,-3.827,0A3.827,3.827,0,1,1,3.827,0" fill="rgb(249, 224, 210)" stroke-width="2" opacity="0.7"/><path transform="translate(93.75,318.75)" d="M1.137,0A1.137,1.137,0,1,1,-1.137,0A1.137,1.137,0,1,1,1.137,0" fill="rgb(241, 239, 238)" stroke-width="2" opacity="0.7"/><path transform="translate(93.75,543.75)" d="M3.838,0A3.838,3.838,0,1,1,-3.838,0A3.838,3.838,0,1,1,3.838,0" fill="rgb(249, 224, 210)" stroke-width="2" opacity="0.7"/><path transform="translate(93.75,206.25)" d="M4.088,0A4.088,4.088,0,1,1,-4.088,0A4.088,4.088,0,1,1,4.088,0" fill="rgb(214, 230, 239)" stroke-width="2" opacity="0.7"/><path transform="translate(93.75,18.75)" d="M4.909,0A4.909,4.909,0,1,1,-4.909,0A4.909,4.909,0,1,1,4.909,0" fill="rgb(249, 206, 185)" stroke-width="2" opacity="0.7"/><path transform="translate(56.25,168.75)" d="M1.286,0A1.286,1.286,0,1,1,-1.286,0A1.286,1.286,0,1,1,1.286,0" fill="rgb(242, 238, 237)" stroke-width="2" opacity="0.7"/><path transform="translate(56.25,393.75)" d="M1.487,0A1.487,1.487,0,1,1,-1.487,0A1.487,1.487,0,1,1,1.487,0" fill="rgb(243, 238, 235)" stroke-width="2" opacity="0.7"/><path transform="translate(56.25,581.25)" d="M3.293,0A3.293,3.293,0,1,1,-3.293,0A3.293,3.293,0,1,1,3.293,0" fill="rgb(247, 228, 218)" stroke-width="2" opacity="0.7"/><path transform="translate(56.25,131.25)" d="M1.981,0A1.981,1.981,0,1,1,-1.981,0A1.981,1.981,0,1,1,1.981,0" fill="rgb(243, 236, 232)" stroke-width="2" opacity="0.7"/><path transform="translate(56.25,93.75)" d="M2.865,0A2.865,2.865,0,1,1,-2.865,0A2.865,2.865,0,1,1,2.865,0" fill="rgb(229, 235, 238)" stroke-width="2" opacity="0.7"/><path transform="translate(56.25,431.25)" d="M2.038,0A2.038,2.038,0,1,1,-2.038,0A2.038,2.038,0,1,1,2.038,0" fill="rgb(244, 235, 231)" stroke-width="2" opacity="0.7"/><path transform="translate(56.25,281.25)" d="M3.339,0A3.339,3.339,0,1,1,-3.339,0A3.339,3.339,0,1,1,3.339,0" fill="rgb(247, 228, 217)" stroke-width="2" opacity="0.7"/><path transform="translate(56.25,243.75)" d="M1.871,0A1.871,1.871,0,1,1,-1.871,0A1.871,1.871,0,1,1,1.871,0" fill="rgb(243, 236, 233)" stroke-width="2" opacity="0.7"/><path transform="translate(56.25,356.25)" d="M2.116,0A2.116,2.116,0,1,1,-2.116,0A2.116,2.116,0,1,1,2.116,0" fill="rgb(236, 237, 238)" stroke-width="2" opacity="0.7"/><path transform="translate(56.25,468.75)" d="M1.88,0A1.88,1.88,0,1,1,-1.88,0A1.88,1.88,0,1,1,1.88,0" fill="rgb(243, 236, 233)" stroke-width="2" opacity="0.7"/><path transform="translate(56.25,506.25)" d="M2.548,0A2.548,2.548,0,1,1,-2.548,0A2.548,2.548,0,1,1,2.548,0" fill="rgb(245, 233, 227)" stroke-width="2" opacity="0.7"/><path transform="translate(56.25,318.75)" d="M1.2,0A1.2,1.2,0,1,1,-1.2,0A1.2,1.2,0,1,1,1.2,0" fill="rgb(242, 239, 237)" stroke-width="2" opacity="0.7"/><path transform="translate(56.25,543.75)" d="M3.218,0A3.218,3.218,0,1,1,-3.218,0A3.218,3.218,0,1,1,3.218,0" fill="rgb(247, 229, 219)" stroke-width="2" opacity="0.7"/><path transform="translate(56.25,206.25)" d="M3.3,0A3.3,3.3,0,1,1,-3.3,0A3.3,3.3,0,1,1,3.3,0" fill="rgb(224, 233, 239)" stroke-width="2" opacity="0.7"/><path transform="translate(56.25,18.75)" d="M2.561,0A2.561,2.561,0,1,1,-2.561,0A2.561,2.561,0,1,1,2.561,0" fill="rgb(245, 233, 226)" stroke-width="2" opacity="0.7"/><path transform="translate(431.25,168.75)" d="M1.465,0A1.465,1.465,0,1,1,-1.465,0A1.465,1.465,0,1,1,1.465,0" fill="rgb(243, 238, 236)" stroke-width="2" opacity="0.7"/><path transform="translate(431.25,393.75)" d="M1.877,0A1.877,1.877,0,1,1,-1.877,0A1.877,1.877,0,1,1,1.877,0" fill="rgb(237, 238, 238)" stroke-width="2" opacity="0.7"/><path transform="translate(431.25,581.25)" d="M2.393,0A2.393,2.393,0,1,1,-2.393,0A2.393,2.393,0,1,1,2.393,0" fill="rgb(244, 234, 228)" stroke-width="2" opacity="0.7"/><path transform="translate(431.25,131.25)" d="M1.402,0A1.402,1.402,0,1,1,-1.402,0A1.402,1.402,0,1,1,1.402,0" fill="rgb(240, 238, 238)" stroke-width="2" opacity="0.7"/><path transform="translate(431.25,93.75)" d="M1.832,0A1.832,1.832,0,1,1,-1.832,0A1.832,1.832,0,1,1,1.832,0" fill="rgb(243, 236, 233)" stroke-width="2" opacity="0.7"/><path transform="translate(431.25,56.25)" d="M2.038,0A2.038,2.038,0,1,1,-2.038,0A2.038,2.038,0,1,1,2.038,0" fill="rgb(244, 235, 231)" stroke-width="2" opacity="0.7"/><path transform="translate(431.25,281.25)" d="M2.074,0A2.074,2.074,0,1,1,-2.074,0A2.074,2.074,0,1,1,2.074,0" fill="rgb(244, 235, 231)" stroke-width="2" opacity="0.7"/><path transform="translate(431.25,243.75)" d="M2.144,0A2.144,2.144,0,1,1,-2.144,0A2.144,2.144,0,1,1,2.144,0" fill="rgb(244, 235, 231)" stroke-width="2" opacity="0.7"/><path transform="translate(431.25,356.25)" d="M1.448,0A1.448,1.448,0,1,1,-1.448,0A1.448,1.448,0,1,1,1.448,0" fill="rgb(243, 238, 236)" stroke-width="2" opacity="0.7"/><path transform="translate(431.25,468.75)" d="M7.584,0A7.584,7.584,0,1,1,-7.584,0A7.584,7.584,0,1,1,7.584,0" fill="rgb(218, 106, 88)" stroke-width="2" opacity="0.7"/><path transform="translate(431.25,506.25)" d="M1.824,0A1.824,1.824,0,1,1,-1.824,0A1.824,1.824,0,1,1,1.824,0" fill="rgb(243, 236, 233)" stroke-width="2" opacity="0.7"/><path transform="translate(431.25,318.75)" d="M1.934,0A1.934,1.934,0,1,1,-1.934,0A1.934,1.934,0,1,1,1.934,0" fill="rgb(243, 236, 232)" stroke-width="2" opacity="0.7"/><path transform="translate(431.25,543.75)" d="M4.086,0A4.086,4.086,0,1,1,-4.086,0A4.086,4.086,0,1,1,4.086,0" fill="rgb(250, 221, 205)" stroke-width="2" opacity="0.7"/><path transform="translate(431.25,206.25)" d="M3.352,0A3.352,3.352,0,1,1,-3.352,0A3.352,3.352,0,1,1,3.352,0" fill="rgb(247, 228, 217)" stroke-width="2" opacity="0.7"/><path transform="translate(431.25,18.75)" d="M1.833,0A1.833,1.833,0,1,1,-1.833,0A1.833,1.833,0,1,1,1.833,0" fill="rgb(238, 238, 238)" stroke-width="2" opacity="0.7"/><path transform="translate(281.25,168.75)" d="M2.237,0A2.237,2.237,0,1,1,-2.237,0A2.237,2.237,0,1,1,2.237,0" fill="rgb(235, 237, 238)" stroke-width="2" opacity="0.7"/><path transform="translate(281.25,393.75)" d="M2.225,0A2.225,2.225,0,1,1,-2.225,0A2.225,2.225,0,1,1,2.225,0" fill="rgb(235, 237, 238)" stroke-width="2" opacity="0.7"/><path transform="translate(281.25,581.25)" d="M9.047,0A9.047,9.047,0,1,1,-9.047,0A9.047,9.047,0,1,1,9.047,0" fill="rgb(32, 96, 155)" stroke-width="2" opacity="0.7"/><path transform="translate(281.25,131.25)" d="M5.621,0A5.621,5.621,0,1,1,-5.621,0A5.621,5.621,0,1,1,5.621,0" fill="rgb(172, 210, 229)" stroke-width="2" opacity="0.7"/><path transform="translate(281.25,93.75)" d="M3.902,0A3.902,3.902,0,1,1,-3.902,0A3.902,3.902,0,1,1,3.902,0" fill="rgb(249, 223, 209)" stroke-width="2" opacity="0.7"/><path transform="translate(281.25,56.25)" d="M3.339,0A3.339,3.339,0,1,1,-3.339,0A3.339,3.339,0,1,1,3.339,0" fill="rgb(247, 228, 217)" stroke-width="2" opacity="0.7"/><path transform="translate(281.25,431.25)" d="M2.074,0A2.074,2.074,0,1,1,-2.074,0A2.074,2.074,0,1,1,2.074,0" fill="rgb(244, 235, 231)" stroke-width="2" opacity="0.7"/><path transform="translate(281.25,243.75)" d="M2.866,0A2.866,2.866,0,1,1,-2.866,0A2.866,2.866,0,1,1,2.866,0" fill="rgb(229, 235, 238)" stroke-width="2" opacity="0.7"/><path transform="translate(281.25,356.25)" d="M3.499,0A3.499,3.499,0,1,1,-3.499,0A3.499,3.499,0,1,1,3.499,0" fill="rgb(248, 226, 215)" stroke-width="2" opacity="0.7"/><path transform="translate(281.25,468.75)" d="M6.636,0A6.636,6.636,0,1,1,-6.636,0A6.636,6.636,0,1,1,6.636,0" fill="rgb(131, 186, 216)" stroke-width="2" opacity="0.7"/><path transform="translate(281.25,506.25)" d="M6.132,0A6.132,6.132,0,1,1,-6.132,0A6.132,6.132,0,1,1,6.132,0" fill="rgb(154, 200, 224)" stroke-width="2" opacity="0.7"/><path transform="translate(281.25,318.75)" d="M1.224,0A1.224,1.224,0,1,1,-1.224,0A1.224,1.224,0,1,1,1.224,0" fill="rgb(242, 238, 237)" stroke-width="2" opacity="0.7"/><path transform="translate(281.25,543.75)" d="M9.327,0A9.327,9.327,0,1,1,-9.327,0A9.327,9.327,0,1,1,9.327,0" fill="rgb(24, 83, 141)" stroke-width="2" opacity="0.7"/><path transform="translate(281.25,206.25)" d="M4.39,0A4.39,4.39,0,1,1,-4.39,0A4.39,4.39,0,1,1,4.39,0" fill="rgb(251, 218, 200)" stroke-width="2" opacity="0.7"/><path transform="translate(281.25,18.75)" d="M6.286,0A6.286,6.286,0,1,1,-6.286,0A6.286,6.286,0,1,1,6.286,0" fill="rgb(147, 196, 222)" stroke-width="2" opacity="0.7"/><path transform="translate(243.75,168.75)" d="M7.391,0A7.391,7.391,0,1,1,-7.391,0A7.391,7.391,0,1,1,7.391,0" fill="rgb(223, 116, 94)" stroke-width="2" opacity="0.7"/><path transform="translate(243.75,393.75)" d="M2.433,0A2.433,2.433,0,1,1,-2.433,0A2.433,2.433,0,1,1,2.433,0" fill="rgb(244, 233, 228)" stroke-width="2" opacity="0.7"/><path transform="translate(243.75,581.25)" d="M3.489,0A3.489,3.489,0,1,1,-3.489,0A3.489,3.489,0,1,1,3.489,0" fill="rgb(222, 233, 239)" stroke-width="2" opacity="0.7"/><path transform="translate(243.75,131.25)" d="M2.71,0A2.71,2.71,0,1,1,-2.71,0A2.71,2.71,0,1,1,2.71,0" fill="rgb(245, 232, 225)" stroke-width="2" opacity="0.7"/><path transform="translate(243.75,93.75)" d="M2.454,0A2.454,2.454,0,1,1,-2.454,0A2.454,2.454,0,1,1,2.454,0" fill="rgb(245, 233, 228)" stroke-width="2" opacity="0.7"/><path transform="translate(243.75,56.25)" d="M1.871,0A1.871,1.871,0,1,1,-1.871,0A1.871,1.871,0,1,1,1.871,0" fill="rgb(243, 236, 233)" stroke-width="2" opacity="0.7"/><path transform="translate(243.75,431.25)" d="M2.144,0A2.144,2.144,0,1,1,-2.144,0A2.144,2.144,0,1,1,2.144,0" fill="rgb(244, 235, 231)" stroke-width="2" opacity="0.7"/><path transform="translate(243.75,281.25)" d="M2.866,0A2.866,2.866,0,1,1,-2.866,0A2.866,2.866,0,1,1,2.866,0" fill="rgb(229, 235, 238)" stroke-width="2" opacity="0.7"/><path transform="translate(243.75,356.25)" d="M2.463,0A2.463,2.463,0,1,1,-2.463,0A2.463,2.463,0,1,1,2.463,0" fill="rgb(233, 236, 238)" stroke-width="2" opacity="0.7"/><path transform="translate(243.75,468.75)" d="M3.514,0A3.514,3.514,0,1,1,-3.514,0A3.514,3.514,0,1,1,3.514,0" fill="rgb(222, 233, 239)" stroke-width="2" opacity="0.7"/><path transform="translate(243.75,506.25)" d="M3.994,0A3.994,3.994,0,1,1,-3.994,0A3.994,3.994,0,1,1,3.994,0" fill="rgb(215, 231, 239)" stroke-width="2" opacity="0.7"/><path transform="translate(243.75,318.75)" d="M1.562,0A1.562,1.562,0,1,1,-1.562,0A1.562,1.562,0,1,1,1.562,0" fill="rgb(239, 238, 238)" stroke-width="2" opacity="0.7"/><path transform="translate(243.75,543.75)" d="M4.078,0A4.078,4.078,0,1,1,-4.078,0A4.078,4.078,0,1,1,4.078,0" fill="rgb(214, 230, 239)" stroke-width="2" opacity="0.7"/><path transform="translate(243.75,206.25)" d="M1.397,0A1.397,1.397,0,1,1,-1.397,0A1.397,1.397,0,1,1,1.397,0" fill="rgb(242, 238, 236)" stroke-width="2" opacity="0.7"/><path transform="translate(243.75,18.75)" d="M4.169,0A4.169,4.169,0,1,1,-4.169,0A4.169,4.169,0,1,1,4.169,0" fill="rgb(213, 230, 239)" stroke-width="2" opacity="0.7"/><path transform="translate(356.25,168.75)" d="M1.192,0A1.192,1.192,0,1,1,-1.192,0A1.192,1.192,0,1,1,1.192,0" fill="rgb(241, 239, 238)" stroke-width="2" opacity="0.7"/><path transform="translate(356.25,393.75)" d="M2.035,0A2.035,2.035,0,1,1,-2.035,0A2.035,2.035,0,1,1,2.035,0" fill="rgb(244, 235, 231)" stroke-width="2" opacity="0.7"/><path transform="translate(356.25,581.25)" d="M1.475,0A1.475,1.475,0,1,1,-1.475,0A1.475,1.475,0,1,1,1.475,0" fill="rgb(243, 238, 236)" stroke-width="2" opacity="0.7"/><path transform="translate(356.25,131.25)" d="M6.151,0A6.151,6.151,0,1,1,-6.151,0A6.151,6.151,0,1,1,6.151,0" fill="rgb(243, 170, 142)" stroke-width="2" opacity="0.7"/><path transform="translate(356.25,93.75)" d="M1.61,0A1.61,1.61,0,1,1,-1.61,0A1.61,1.61,0,1,1,1.61,0" fill="rgb(239, 238, 238)" stroke-width="2" opacity="0.7"/><path transform="translate(356.25,56.25)" d="M2.116,0A2.116,2.116,0,1,1,-2.116,0A2.116,2.116,0,1,1,2.116,0" fill="rgb(236, 237, 238)" stroke-width="2" opacity="0.7"/><path transform="translate(356.25,431.25)" d="M1.448,0A1.448,1.448,0,1,1,-1.448,0A1.448,1.448,0,1,1,1.448,0" fill="rgb(243, 238, 236)" stroke-width="2" opacity="0.7"/><path transform="translate(356.25,281.25)" d="M3.499,0A3.499,3.499,0,1,1,-3.499,0A3.499,3.499,0,1,1,3.499,0" fill="rgb(248, 226, 215)" stroke-width="2" opacity="0.7"/><path transform="translate(356.25,243.75)" d="M2.463,0A2.463,2.463,0,1,1,-2.463,0A2.463,2.463,0,1,1,2.463,0" fill="rgb(233, 236, 238)" stroke-width="2" opacity="0.7"/><path transform="translate(356.25,468.75)" d="M2.06,0A2.06,2.06,0,1,1,-2.06,0A2.06,2.06,0,1,1,2.06,0" fill="rgb(244, 235, 231)" stroke-width="2" opacity="0.7"/><path transform="translate(356.25,506.25)" d="M3.688,0A3.688,3.688,0,1,1,-3.688,0A3.688,3.688,0,1,1,3.688,0" fill="rgb(248, 225, 212)" stroke-width="2" opacity="0.7"/><path transform="translate(356.25,318.75)" d="M3.103,0A3.103,3.103,0,1,1,-3.103,0A3.103,3.103,0,1,1,3.103,0" fill="rgb(227, 234, 238)" stroke-width="2" opacity="0.7"/><path transform="translate(356.25,543.75)" d="M3.394,0A3.394,3.394,0,1,1,-3.394,0A3.394,3.394,0,1,1,3.394,0" fill="rgb(247, 227, 216)" stroke-width="2" opacity="0.7"/><path transform="translate(356.25,206.25)" d="M4.97,0A4.97,4.97,0,1,1,-4.97,0A4.97,4.97,0,1,1,4.97,0" fill="rgb(193, 220, 234)" stroke-width="2" opacity="0.7"/><path transform="translate(356.25,18.75)" d="M1.414,0A1.414,1.414,0,1,1,-1.414,0A1.414,1.414,0,1,1,1.414,0" fill="rgb(243, 238, 236)" stroke-width="2" opacity="0.7"/><path transform="translate(468.75,168.75)" d="M1.816,0A1.816,1.816,0,1,1,-1.816,0A1.816,1.816,0,1,1,1.816,0" fill="rgb(238, 238, 238)" stroke-width="2" opacity="0.7"/><path transform="translate(468.75,393.75)" d="M1.003,0A1.003,1.003,0,1,1,-1.003,0A1.003,1.003,0,1,1,1.003,0" fill="rgb(242, 239, 238)" stroke-width="2" opacity="0.7"/><path transform="translate(468.75,581.25)" d="M6.474,0A6.474,6.474,0,1,1,-6.474,0A6.474,6.474,0,1,1,6.474,0" fill="rgb(138, 190, 219)" stroke-width="2" opacity="0.7"/><path transform="translate(468.75,131.25)" d="M3.97,0A3.97,3.97,0,1,1,-3.97,0A3.97,3.97,0,1,1,3.97,0" fill="rgb(216, 231, 239)" stroke-width="2" opacity="0.7"/><path transform="translate(468.75,93.75)" d="M2.631,0A2.631,2.631,0,1,1,-2.631,0A2.631,2.631,0,1,1,2.631,0" fill="rgb(245, 232, 226)" stroke-width="2" opacity="0.7"/><path transform="translate(468.75,56.25)" d="M1.88,0A1.88,1.88,0,1,1,-1.88,0A1.88,1.88,0,1,1,1.88,0" fill="rgb(243, 236, 233)" stroke-width="2" opacity="0.7"/><path transform="translate(468.75,431.25)" d="M7.584,0A7.584,7.584,0,1,1,-7.584,0A7.584,7.584,0,1,1,7.584,0" fill="rgb(218, 106, 88)" stroke-width="2" opacity="0.7"/><path transform="translate(468.75,281.25)" d="M6.636,0A6.636,6.636,0,1,1,-6.636,0A6.636,6.636,0,1,1,6.636,0" fill="rgb(131, 186, 216)" stroke-width="2" opacity="0.7"/><path transform="translate(468.75,243.75)" d="M3.514,0A3.514,3.514,0,1,1,-3.514,0A3.514,3.514,0,1,1,3.514,0" fill="rgb(222, 233, 239)" stroke-width="2" opacity="0.7"/><path transform="translate(468.75,356.25)" d="M2.06,0A2.06,2.06,0,1,1,-2.06,0A2.06,2.06,0,1,1,2.06,0" fill="rgb(244, 235, 231)" stroke-width="2" opacity="0.7"/><path transform="translate(468.75,506.25)" d="M5.04,0A5.04,5.04,0,1,1,-5.04,0A5.04,5.04,0,1,1,5.04,0" fill="rgb(191, 219, 234)" stroke-width="2" opacity="0.7"/><path transform="translate(468.75,318.75)" d="M1.563,0A1.563,1.563,0,1,1,-1.563,0A1.563,1.563,0,1,1,1.563,0" fill="rgb(239, 238, 238)" stroke-width="2" opacity="0.7"/><path transform="translate(468.75,543.75)" d="M7.518,0A7.518,7.518,0,1,1,-7.518,0A7.518,7.518,0,1,1,7.518,0" fill="rgb(88, 157, 200)" stroke-width="2" opacity="0.7"/><path transform="translate(468.75,206.25)" d="M1.033,0A1.033,1.033,0,1,1,-1.033,0A1.033,1.033,0,1,1,1.033,0" fill="rgb(242, 239, 238)" stroke-width="2" opacity="0.7"/><path transform="translate(468.75,18.75)" d="M4.659,0A4.659,4.659,0,1,1,-4.659,0A4.659,4.659,0,1,1,4.659,0" fill="rgb(202, 225, 237)" stroke-width="2" opacity="0.7"/><path transform="translate(506.25,168.75)" d="M1.731,0A1.731,1.731,0,1,1,-1.731,0A1.731,1.731,0,1,1,1.731,0" fill="rgb(238, 238, 238)" stroke-width="2" opacity="0.7"/><path transform="translate(506.25,393.75)" d="M2.17,0A2.17,2.17,0,1,1,-2.17,0A2.17,2.17,0,1,1,2.17,0" fill="rgb(235, 237, 238)" stroke-width="2" opacity="0.7"/><path transform="translate(506.25,581.25)" d="M6.069,0A6.069,6.069,0,1,1,-6.069,0A6.069,6.069,0,1,1,6.069,0" fill="rgb(157, 202, 225)" stroke-width="2" opacity="0.7"/><path transform="translate(506.25,131.25)" d="M6.897,0A6.897,6.897,0,1,1,-6.897,0A6.897,6.897,0,1,1,6.897,0" fill="rgb(118, 178, 212)" stroke-width="2" opacity="0.7"/><path transform="translate(506.25,93.75)" d="M3.827,0A3.827,3.827,0,1,1,-3.827,0A3.827,3.827,0,1,1,3.827,0" fill="rgb(249, 224, 210)" stroke-width="2" opacity="0.7"/><path transform="translate(506.25,56.25)" d="M2.548,0A2.548,2.548,0,1,1,-2.548,0A2.548,2.548,0,1,1,2.548,0" fill="rgb(245, 233, 227)" stroke-width="2" opacity="0.7"/><path transform="translate(506.25,431.25)" d="M1.824,0A1.824,1.824,0,1,1,-1.824,0A1.824,1.824,0,1,1,1.824,0" fill="rgb(243, 236, 233)" stroke-width="2" opacity="0.7"/><path transform="translate(506.25,281.25)" d="M6.132,0A6.132,6.132,0,1,1,-6.132,0A6.132,6.132,0,1,1,6.132,0" fill="rgb(154, 200, 224)" stroke-width="2" opacity="0.7"/><path transform="translate(506.25,243.75)" d="M3.994,0A3.994,3.994,0,1,1,-3.994,0A3.994,3.994,0,1,1,3.994,0" fill="rgb(215, 231, 239)" stroke-width="2" opacity="0.7"/><path transform="translate(506.25,356.25)" d="M3.688,0A3.688,3.688,0,1,1,-3.688,0A3.688,3.688,0,1,1,3.688,0" fill="rgb(248, 225, 212)" stroke-width="2" opacity="0.7"/><path transform="translate(506.25,468.75)" d="M5.04,0A5.04,5.04,0,1,1,-5.04,0A5.04,5.04,0,1,1,5.04,0" fill="rgb(191, 219, 234)" stroke-width="2" opacity="0.7"/><path transform="translate(506.25,318.75)" d="M1.147,0A1.147,1.147,0,1,1,-1.147,0A1.147,1.147,0,1,1,1.147,0" fill="rgb(242, 239, 237)" stroke-width="2" opacity="0.7"/><path transform="translate(506.25,543.75)" d="M6.214,0A6.214,6.214,0,1,1,-6.214,0A6.214,6.214,0,1,1,6.214,0" fill="rgb(150, 198, 223)" stroke-width="2" opacity="0.7"/><path transform="translate(506.25,206.25)" d="M3.271,0A3.271,3.271,0,1,1,-3.271,0A3.271,3.271,0,1,1,3.271,0" fill="rgb(247, 228, 218)" stroke-width="2" opacity="0.7"/><path transform="translate(506.25,18.75)" d="M7.104,0A7.104,7.104,0,1,1,-7.104,0A7.104,7.104,0,1,1,7.104,0" fill="rgb(108, 171, 208)" stroke-width="2" opacity="0.7"/><path transform="translate(318.75,168.75)" d="M1.716,0A1.716,1.716,0,1,1,-1.716,0A1.716,1.716,0,1,1,1.716,0" fill="rgb(239, 238, 238)" stroke-width="2" opacity="0.7"/><path transform="translate(318.75,393.75)" d="M1.209,0A1.209,1.209,0,1,1,-1.209,0A1.209,1.209,0,1,1,1.209,0" fill="rgb(241, 239, 238)" stroke-width="2" opacity="0.7"/><path transform="translate(318.75,581.25)" d="M1.514,0A1.514,1.514,0,1,1,-1.514,0A1.514,1.514,0,1,1,1.514,0" fill="rgb(240, 238, 238)" stroke-width="2" opacity="0.7"/><path transform="translate(318.75,131.25)" d="M1.93,0A1.93,1.93,0,1,1,-1.93,0A1.93,1.93,0,1,1,1.93,0" fill="rgb(243, 236, 232)" stroke-width="2" opacity="0.7"/><path transform="translate(318.75,93.75)" d="M1.137,0A1.137,1.137,0,1,1,-1.137,0A1.137,1.137,0,1,1,1.137,0" fill="rgb(241, 239, 238)" stroke-width="2" opacity="0.7"/><path transform="translate(318.75,56.25)" d="M1.2,0A1.2,1.2,0,1,1,-1.2,0A1.2,1.2,0,1,1,1.2,0" fill="rgb(242, 239, 237)" stroke-width="2" opacity="0.7"/><path transform="translate(318.75,431.25)" d="M1.934,0A1.934,1.934,0,1,1,-1.934,0A1.934,1.934,0,1,1,1.934,0" fill="rgb(243, 236, 232)" stroke-width="2" opacity="0.7"/><path transform="translate(318.75,281.25)" d="M1.224,0A1.224,1.224,0,1,1,-1.224,0A1.224,1.224,0,1,1,1.224,0" fill="rgb(242, 238, 237)" stroke-width="2" opacity="0.7"/><path transform="translate(318.75,243.75)" d="M1.562,0A1.562,1.562,0,1,1,-1.562,0A1.562,1.562,0,1,1,1.562,0" fill="rgb(239, 238, 238)" stroke-width="2" opacity="0.7"/><path transform="translate(318.75,356.25)" d="M3.103,0A3.103,3.103,0,1,1,-3.103,0A3.103,3.103,0,1,1,3.103,0" fill="rgb(227, 234, 238)" stroke-width="2" opacity="0.7"/><path transform="translate(318.75,468.75)" d="M1.563,0A1.563,1.563,0,1,1,-1.563,0A1.563,1.563,0,1,1,1.563,0" fill="rgb(239, 238, 238)" stroke-width="2" opacity="0.7"/><path transform="translate(318.75,506.25)" d="M1.147,0A1.147,1.147,0,1,1,-1.147,0A1.147,1.147,0,1,1,1.147,0" fill="rgb(242, 239, 237)" stroke-width="2" opacity="0.7"/><path transform="translate(318.75,543.75)" d="M1.068,0A1.068,1.068,0,1,1,-1.068,0A1.068,1.068,0,1,1,1.068,0" fill="rgb(242, 239, 238)" stroke-width="2" opacity="0.7"/><path transform="translate(318.75,206.25)" d="M2.36,0A2.36,2.36,0,1,1,-2.36,0A2.36,2.36,0,1,1,2.36,0" fill="rgb(234, 236, 238)" stroke-width="2" opacity="0.7"/><path transform="translate(318.75,18.75)" d="M1.256,0A1.256,1.256,0,1,1,-1.256,0A1.256,1.256,0,1,1,1.256,0" fill="rgb(241, 239, 238)" stroke-width="2" opacity="0.7"/><path transform="translate(543.75,168.75)" d="M2.304,0A2.304,2.304,0,1,1,-2.304,0A2.304,2.304,0,1,1,2.304,0" fill="rgb(234, 237, 238)" stroke-width="2" opacity="0.7"/><path transform="translate(543.75,393.75)" d="M2.078,0A2.078,2.078,0,1,1,-2.078,0A2.078,2.078,0,1,1,2.078,0" fill="rgb(236, 237, 238)" stroke-width="2" opacity="0.7"/><path transform="translate(543.75,581.25)" d="M8.907,0A8.907,8.907,0,1,1,-8.907,0A8.907,8.907,0,1,1,8.907,0" fill="rgb(36, 103, 161)" stroke-width="2" opacity="0.7"/><path transform="translate(543.75,131.25)" d="M5.588,0A5.588,5.588,0,1,1,-5.588,0A5.588,5.588,0,1,1,5.588,0" fill="rgb(173, 210, 229)" stroke-width="2" opacity="0.7"/><path transform="translate(543.75,93.75)" d="M3.838,0A3.838,3.838,0,1,1,-3.838,0A3.838,3.838,0,1,1,3.838,0" fill="rgb(249, 224, 210)" stroke-width="2" opacity="0.7"/><path transform="translate(543.75,56.25)" d="M3.218,0A3.218,3.218,0,1,1,-3.218,0A3.218,3.218,0,1,1,3.218,0" fill="rgb(247, 229, 219)" stroke-width="2" opacity="0.7"/><path transform="translate(543.75,431.25)" d="M4.086,0A4.086,4.086,0,1,1,-4.086,0A4.086,4.086,0,1,1,4.086,0" fill="rgb(250, 221, 205)" stroke-width="2" opacity="0.7"/><path transform="translate(543.75,281.25)" d="M9.327,0A9.327,9.327,0,1,1,-9.327,0A9.327,9.327,0,1,1,9.327,0" fill="rgb(24, 83, 141)" stroke-width="2" opacity="0.7"/><path transform="translate(543.75,243.75)" d="M4.078,0A4.078,4.078,0,1,1,-4.078,0A4.078,4.078,0,1,1,4.078,0" fill="rgb(214, 230, 239)" stroke-width="2" opacity="0.7"/><path transform="translate(543.75,356.25)" d="M3.394,0A3.394,3.394,0,1,1,-3.394,0A3.394,3.394,0,1,1,3.394,0" fill="rgb(247, 227, 216)" stroke-width="2" opacity="0.7"/><path transform="translate(543.75,468.75)" d="M7.518,0A7.518,7.518,0,1,1,-7.518,0A7.518,7.518,0,1,1,7.518,0" fill="rgb(88, 157, 200)" stroke-width="2" opacity="0.7"/><path transform="translate(543.75,506.25)" d="M6.214,0A6.214,6.214,0,1,1,-6.214,0A6.214,6.214,0,1,1,6.214,0" fill="rgb(150, 198, 223)" stroke-width="2" opacity="0.7"/><path transform="translate(543.75,318.75)" d="M1.068,0A1.068,1.068,0,1,1,-1.068,0A1.068,1.068,0,1,1,1.068,0" fill="rgb(242, 239, 238)" stroke-width="2" opacity="0.7"/><path transform="translate(543.75,206.25)" d="M3.994,0A3.994,3.994,0,1,1,-3.994,0A3.994,3.994,0,1,1,3.994,0" fill="rgb(250, 222, 207)" stroke-width="2" opacity="0.7"/><path transform="translate(543.75,18.75)" d="M6.299,0A6.299,6.299,0,1,1,-6.299,0A6.299,6.299,0,1,1,6.299,0" fill="rgb(146, 195, 221)" stroke-width="2" opacity="0.7"/><path transform="translate(206.25,168.75)" d="M1.392,0A1.392,1.392,0,1,1,-1.392,0A1.392,1.392,0,1,1,1.392,0" fill="rgb(242, 238, 236)" stroke-width="2" opacity="0.7"/><path transform="translate(206.25,393.75)" d="M1.116,0A1.116,1.116,0,1,1,-1.116,0A1.116,1.116,0,1,1,1.116,0" fill="rgb(242, 239, 238)" stroke-width="2" opacity="0.7"/><path transform="translate(206.25,581.25)" d="M4.093,0A4.093,4.093,0,1,1,-4.093,0A4.093,4.093,0,1,1,4.093,0" fill="rgb(250, 221, 205)" stroke-width="2" opacity="0.7"/><path transform="translate(206.25,131.25)" d="M4.277,0A4.277,4.277,0,1,1,-4.277,0A4.277,4.277,0,1,1,4.277,0" fill="rgb(251, 220, 202)" stroke-width="2" opacity="0.7"/><path transform="translate(206.25,93.75)" d="M4.088,0A4.088,4.088,0,1,1,-4.088,0A4.088,4.088,0,1,1,4.088,0" fill="rgb(214, 230, 239)" stroke-width="2" opacity="0.7"/><path transform="translate(206.25,56.25)" d="M3.3,0A3.3,3.3,0,1,1,-3.3,0A3.3,3.3,0,1,1,3.3,0" fill="rgb(224, 233, 239)" stroke-width="2" opacity="0.7"/><path transform="translate(206.25,431.25)" d="M3.352,0A3.352,3.352,0,1,1,-3.352,0A3.352,3.352,0,1,1,3.352,0" fill="rgb(247, 228, 217)" stroke-width="2" opacity="0.7"/><path transform="translate(206.25,281.25)" d="M4.39,0A4.39,4.39,0,1,1,-4.39,0A4.39,4.39,0,1,1,4.39,0" fill="rgb(251, 218, 200)" stroke-width="2" opacity="0.7"/><path transform="translate(206.25,243.75)" d="M1.397,0A1.397,1.397,0,1,1,-1.397,0A1.397,1.397,0,1,1,1.397,0" fill="rgb(242, 238, 236)" stroke-width="2" opacity="0.7"/><path transform="translate(206.25,356.25)" d="M4.97,0A4.97,4.97,0,1,1,-4.97,0A4.97,4.97,0,1,1,4.97,0" fill="rgb(193, 220, 234)" stroke-width="2" opacity="0.7"/><path transform="translate(206.25,468.75)" d="M1.033,0A1.033,1.033,0,1,1,-1.033,0A1.033,1.033,0,1,1,1.033,0" fill="rgb(242, 239, 238)" stroke-width="2" opacity="0.7"/><path transform="translate(206.25,506.25)" d="M3.271,0A3.271,3.271,0,1,1,-3.271,0A3.271,3.271,0,1,1,3.271,0" fill="rgb(247, 228, 218)" stroke-width="2" opacity="0.7"/><path transform="translate(206.25,318.75)" d="M2.36,0A2.36,2.36,0,1,1,-2.36,0A2.36,2.36,0,1,1,2.36,0" fill="rgb(234, 236, 238)" stroke-width="2" opacity="0.7"/><path transform="translate(206.25,543.75)" d="M3.994,0A3.994,3.994,0,1,1,-3.994,0A3.994,3.994,0,1,1,3.994,0" fill="rgb(250, 222, 207)" stroke-width="2" opacity="0.7"/><path transform="translate(206.25,18.75)" d="M6.462,0A6.462,6.462,0,1,1,-6.462,0A6.462,6.462,0,1,1,6.462,0" fill="rgb(238, 158, 131)" stroke-width="2" opacity="0.7"/><path transform="translate(18.75,168.75)" d="M2.093,0A2.093,2.093,0,1,1,-2.093,0A2.093,2.093,0,1,1,2.093,0" fill="rgb(236, 237, 238)" stroke-width="2" opacity="0.7"/><path transform="translate(18.75,393.75)" d="M1.892,0A1.892,1.892,0,1,1,-1.892,0A1.892,1.892,0,1,1,1.892,0" fill="rgb(237, 238, 238)" stroke-width="2" opacity="0.7"/><path transform="translate(18.75,581.25)" d="M6.309,0A6.309,6.309,0,1,1,-6.309,0A6.309,6.309,0,1,1,6.309,0" fill="rgb(146, 195, 221)" stroke-width="2" opacity="0.7"/><path transform="translate(18.75,131.25)" d="M6.227,0A6.227,6.227,0,1,1,-6.227,0A6.227,6.227,0,1,1,6.227,0" fill="rgb(150, 197, 222)" stroke-width="2" opacity="0.7"/><path transform="translate(18.75,93.75)" d="M4.909,0A4.909,4.909,0,1,1,-4.909,0A4.909,4.909,0,1,1,4.909,0" fill="rgb(249, 206, 185)" stroke-width="2" opacity="0.7"/><path transform="translate(18.75,56.25)" d="M2.561,0A2.561,2.561,0,1,1,-2.561,0A2.561,2.561,0,1,1,2.561,0" fill="rgb(245, 233, 226)" stroke-width="2" opacity="0.7"/><path transform="translate(18.75,431.25)" d="M1.833,0A1.833,1.833,0,1,1,-1.833,0A1.833,1.833,0,1,1,1.833,0" fill="rgb(238, 238, 238)" stroke-width="2" opacity="0.7"/><path transform="translate(18.75,281.25)" d="M6.286,0A6.286,6.286,0,1,1,-6.286,0A6.286,6.286,0,1,1,6.286,0" fill="rgb(147, 196, 222)" stroke-width="2" opacity="0.7"/><path transform="translate(18.75,243.75)" d="M4.169,0A4.169,4.169,0,1,1,-4.169,0A4.169,4.169,0,1,1,4.169,0" fill="rgb(213, 230, 239)" stroke-width="2" opacity="0.7"/><path transform="translate(18.75,356.25)" d="M1.414,0A1.414,1.414,0,1,1,-1.414,0A1.414,1.414,0,1,1,1.414,0" fill="rgb(243, 238, 236)" stroke-width="2" opacity="0.7"/><path transform="translate(18.75,468.75)" d="M4.659,0A4.659,4.659,0,1,1,-4.659,0A4.659,4.659,0,1,1,4.659,0" fill="rgb(202, 225, 237)" stroke-width="2" opacity="0.7"/><path transform="translate(18.75,506.25)" d="M7.104,0A7.104,7.104,0,1,1,-7.104,0A7.104,7.104,0,1,1,7.104,0" fill="rgb(108, 171, 208)" stroke-width="2" opacity="0.7"/><path transform="translate(18.75,318.75)" d="M1.256,0A1.256,1.256,0,1,1,-1.256,0A1.256,1.256,0,1,1,1.256,0" fill="rgb(241, 239, 238)" stroke-width="2" opacity="0.7"/><path transform="translate(18.75,543.75)" d="M6.299,0A6.299,6.299,0,1,1,-6.299,0A6.299,6.299,0,1,1,6.299,0" fill="rgb(146, 195, 221)" stroke-width="2" opacity="0.7"/><path transform="translate(18.75,206.25)" d="M6.462,0A6.462,6.462,0,1,1,-6.462,0A6.462,6.462,0,1,1,6.462,0" fill="rgb(238, 158, 131)" stroke-width="2" opacity="0.7"/></g><g class="mark-group role-legend" role="graphics-symbol" aria-roledescription="legend" aria-label="Gradient legend titled 'Correlation' for fill color with values from −1.0 to 1.0"><g transform="translate(618,0)"><path class="background" aria-hidden="true" d="M0,0h59v216h-59Z" pointer-events="none"/><g><g class="mark-group role-legend-entry"><g transform="translate(0,16)"><path class="background" aria-hidden="true" d="M0,0h0v0h0Z" pointer-events="none"/><g><g class="mark-rect role-legend-gradient" pointer-events="none"><path d="M0,0h16v200h-16Z" fill="url(#gradient_0)" stroke="#ddd" stroke-width="0" opacity="0.7"/></g><g class="mark-text role-legend-label" pointer-events="none"><text text-anchor="start" transform="translate(18,198)" font-family="sans-serif" font-size="10px" fill="#000" opacity="1">−1.0</text><text text-anchor="start" transform="translate(18,153)" font-family="sans-serif" font-size="10px" fill="#000" opacity="1">−0.5</text><text text-anchor="start" transform="translate(18,103)" font-family="sans-serif" font-size="10px" fill="#000" opacity="1">0.0</text><text text-anchor="start" transform="translate(18,53)" font-family="sans-serif" font-size="10px" fill="#000" opacity="1">0.5</text><text text-anchor="start" transform="translate(18,8)" font-family="sans-serif" font-size="10px" fill="#000" opacity="1">1.0</text></g></g><path class="foreground" aria-hidden="true" d="" pointer-events="none" display="none"/></g></g><g class="mark-text role-legend-title" pointer-events="none"><text text-anchor="start" transform="translate(0,9)" font-family="sans-serif" font-size="11px" font-weight="bold" fill="#000" opacity="1">Correlation</text></g></g><path class="foreground" aria-hidden="true" d="" pointer-events="none" display="none"/></g></g><g class="mark-group role-legend" role="graphics-symbol" aria-roledescription="legend" aria-label="Symbol legend titled 'Scale' for size with values from 0.0 to 1.0"><g transform="translate(618,224)"><path class="background" aria-hidden="true" d="M0,0h39v128h-39Z" pointer-events="none"/><g><g class="mark-group role-legend-entry"><g transform="translate(0,16)"><path class="background" aria-hidden="true" d="M0,0h0v0h0Z" pointer-events="none"/><g><g class="mark-group role-scope" role="graphics-object" aria-roledescription="group mark container"><g transform="translate(0,0)"><path class="background" aria-hidden="true" d="M0,0h38.9013671875v10h-38.9013671875Z" pointer-events="none" opacity="1"/><g><g class="mark-symbol role-legend-symbol" pointer-events="none"><path transform="translate(10.5,5)" d="M1,0A1,1,0,1,1,-1,0A1,1,0,1,1,1,0" fill="black" fill-opacity="0.7" stroke-width="1.5" opacity="0.7"/></g><g class="mark-text role-legend-label" pointer-events="none"><text text-anchor="start" transform="translate(25,8)" font-family="sans-serif" font-size="10px" fill="#000" opacity="1">0.0</text></g></g><path class="foreground" aria-hidden="true" d="" pointer-events="none" display="none"/></g><g transform="translate(0,13)"><path class="background" aria-hidden="true" d="M0,0h38.9013671875v11.341658669218482h-38.9013671875Z" pointer-events="none" opacity="1"/><g><g class="mark-symbol role-legend-symbol" pointer-events="none"><path transform="translate(10.5,5.5)" d="M4.342,0A4.342,4.342,0,1,1,-4.342,0A4.342,4.342,0,1,1,4.342,0" fill="black" fill-opacity="0.7" stroke-width="1.5" opacity="0.7"/></g><g class="mark-text role-legend-label" pointer-events="none"><text text-anchor="start" transform="translate(25,8.5)" font-family="sans-serif" font-size="10px" fill="#000" opacity="1">0.2</text></g></g><path class="foreground" aria-hidden="true" d="" pointer-events="none" display="none"/></g><g transform="translate(0,28)"><path class="background" aria-hidden="true" d="M0,0h38.9013671875v14.558052492344387h-38.9013671875Z" pointer-events="none" opacity="1"/><g><g class="mark-symbol role-legend-symbol" pointer-events="none"><path transform="translate(10.5,7)" d="M6.058,0A6.058,6.058,0,1,1,-6.058,0A6.058,6.058,0,1,1,6.058,0" fill="black" fill-opacity="0.7" stroke-width="1.5" opacity="0.7"/></g><g class="mark-text role-legend-label" pointer-events="none"><text text-anchor="start" transform="translate(25,10)" font-family="sans-serif" font-size="10px" fill="#000" opacity="1">0.4</text></g></g><path class="foreground" aria-hidden="true" d="" pointer-events="none" display="none"/></g><g transform="translate(0,46)"><path class="background" aria-hidden="true" d="M0,0h38.9013671875v17.38579718107667h-38.9013671875Z" pointer-events="none" opacity="1"/><g><g class="mark-symbol role-legend-symbol" pointer-events="none"><path transform="translate(10.5,8.5)" d="M7.386,0A7.386,7.386,0,1,1,-7.386,0A7.386,7.386,0,1,1,7.386,0" fill="black" fill-opacity="0.7" stroke-width="1.5" opacity="0.7"/></g><g class="mark-text role-legend-label" pointer-events="none"><text text-anchor="start" transform="translate(25,11.5)" font-family="sans-serif" font-size="10px" fill="#000" opacity="1">0.6</text></g></g><path class="foreground" aria-hidden="true" d="" pointer-events="none" display="none"/></g><g transform="translate(0,67)"><path class="background" aria-hidden="true" d="M0,0h38.9013671875v19.508818954473057h-38.9013671875Z" pointer-events="none" opacity="1"/><g><g class="mark-symbol role-legend-symbol" pointer-events="none"><path transform="translate(10.5,9.5)" d="M8.509,0A8.509,8.509,0,1,1,-8.509,0A8.509,8.509,0,1,1,8.509,0" fill="black" fill-opacity="0.7" stroke-width="1.5" opacity="0.7"/></g><g class="mark-text role-legend-label" pointer-events="none"><text text-anchor="start" transform="translate(25,12.5)" font-family="sans-serif" font-size="10px" fill="#000" opacity="1">0.8</text></g></g><path class="foreground" aria-hidden="true" d="" pointer-events="none" display="none"/></g><g transform="translate(0,90)"><path class="background" aria-hidden="true" d="M0,0h38.9013671875v21.5h-38.9013671875Z" pointer-events="none" opacity="1"/><g><g class="mark-symbol role-legend-symbol" pointer-events="none"><path transform="translate(10.5,10.5)" d="M9.5,0A9.5,9.5,0,1,1,-9.5,0A9.5,9.5,0,1,1,9.5,0" fill="black" fill-opacity="0.7" stroke-width="1.5" opacity="0.7"/></g><g class="mark-text role-legend-label" pointer-events="none"><text text-anchor="start" transform="translate(25,13.5)" font-family="sans-serif" font-size="10px" fill="#000" opacity="1">1.0</text></g></g><path class="foreground" aria-hidden="true" d="" pointer-events="none" display="none"/></g></g></g><path class="foreground" aria-hidden="true" d="" pointer-events="none" display="none"/></g></g><g class="mark-text role-legend-title" pointer-events="none"><text text-anchor="start" transform="translate(0,9)" font-family="sans-serif" font-size="11px" font-weight="bold" fill="#000" opacity="1">Scale</text></g></g><path class="foreground" aria-hidden="true" d="" pointer-events="none" display="none"/></g></g><g class="mark-group role-title"><g transform="translate(300,-17)"><path class="background" aria-hidden="true" d="M0,0h0v0h0Z" pointer-events="none"/><g><g class="mark-text role-title-text" role="graphics-symbol" aria-roledescription="title" aria-label="Title text 'Correlation Plot (Spearman) for Train Dataset'" pointer-events="none"><text text-anchor="middle" transform="translate(0,10)" font-family="sans-serif" font-size="13px" font-weight="bold" fill="#000" opacity="1">Correlation Plot (Spearman) for Train Dataset</text></g></g><path class="foreground" aria-hidden="true" d="" pointer-events="none" display="none"/></g></g></g><path class="foreground" aria-hidden="true" d="" display="none"/></g></g></g><defs><linearGradient id="gradient_0" x1="0" x2="0" y1="1" y2="0"><stop offset="0" stop-color="rgb(140, 13, 37)"/><stop offset="0.04999999999999999" stop-color="rgb(166, 34, 48)"/><stop offset="0.09999999999999998" stop-color="rgb(191, 54, 58)"/><stop offset="0.15000000000000002" stop-color="rgb(207, 85, 76)"/><stop offset="0.2" stop-color="rgb(223, 116, 94)"/><stop offset="0.25" stop-color="rgb(234, 145, 120)"/><stop offset="0.3" stop-color="rgb(244, 174, 145)"/><stop offset="0.35" stop-color="rgb(248, 197, 173)"/><stop offset="0.4" stop-color="rgb(251, 219, 201)"/><stop offset="0.45" stop-color="rgb(247, 229, 220)"/><stop offset="0.5" stop-color="rgb(242, 239, 238)"/><stop offset="0.55" stop-color="rgb(226, 234, 239)"/><stop offset="0.6" stop-color="rgb(210, 229, 239)"/><stop offset="0.65" stop-color="rgb(184, 216, 232)"/><stop offset="0.7" stop-color="rgb(157, 202, 225)"/><stop offset="0.75" stop-color="rgb(125, 182, 214)"/><stop offset="0.8" stop-color="rgb(93, 162, 203)"/><stop offset="0.85" stop-color="rgb(70, 141, 191)"/><stop offset="0.9" stop-color="rgb(47, 120, 179)"/><stop offset="0.95" stop-color="rgb(33, 98, 156)"/><stop offset="1" stop-color="rgb(19, 75, 133)"/></linearGradient></defs></svg>