<svg xmlns="http://www.w3.org/2000/svg" xmlns:xlink="http://www.w3.org/1999/xlink" version="1.1" class="marks" width="659" height="464" viewBox="0 0 659 464"><rect width="659" height="464" fill="white"/><g fill="none" stroke-miterlimit="10" transform="translate(53,27)"><g class="mark-group role-frame root" role="graphics-object" aria-roledescription="group mark container"><g transform="translate(0,0)"><path class="background" aria-hidden="true" d="M0.5,0.5h600v400h-600Z" stroke="#ddd"/><g><g class="mark-group role-axis" aria-hidden="true"><g transform="translate(0.5,400.5)"><path class="background" aria-hidden="true" d="M0,0h0v0h0Z" pointer-events="none"/><g><g class="mark-rule role-axis-grid" pointer-events="none"><line transform="translate(0,-400)" x2="0" y2="400" stroke="#ddd" stroke-width="1" opacity="1"/><line transform="translate(40,-400)" x2="0" y2="400" stroke="#ddd" stroke-width="1" opacity="1"/><line transform="translate(80,-400)" x2="0" y2="400" stroke="#ddd" stroke-width="1" opacity="1"/><line transform="translate(120,-400)" x2="0" y2="400" stroke="#ddd" stroke-width="1" opacity="1"/><line transform="translate(160,-400)" x2="0" y2="400" stroke="#ddd" stroke-width="1" opacity="1"/><line transform="translate(200,-400)" x2="0" y2="400" stroke="#ddd" stroke-width="1" opacity="1"/><line transform="translate(240,-400)" x2="0" y2="400" stroke="#ddd" stroke-width="1" opacity="1"/><line transform="translate(280,-400)" x2="0" y2="400" stroke="#ddd" stroke-width="1" opacity="1"/><line transform="translate(320,-400)" x2="0" y2="400" stroke="#ddd" stroke-width="1" opacity="1"/><line transform="translate(360,-400)" x2="0" y2="400" stroke="#ddd" stroke-width="1" opacity="1"/><line transform="translate(400,-400)" x2="0" y2="400" stroke="#ddd" stroke-width="1" opacity="1"/><line transform="translate(440,-400)" x2="0" y2="400" stroke="#ddd" stroke-width="1" opacity="1"/><line transform="translate(480,-400)" x2="0" y2="400" stroke="#ddd" stroke-width="1" opacity="1"/><line transform="translate(520,-400)" x2="0" y2="400" stroke="#ddd" stroke-width="1" opacity="1"/><line transform="translate(560,-400)" x2="0" y2="400" stroke="#ddd" stroke-width="1" opacity="1"/><line transform="translate(600,-400)" x2="0" y2="400" stroke="#ddd" stroke-width="1" opacity="1"/></g></g><path class="foreground" aria-hidden="true" d="" pointer-events="none" display="none"/></g></g><g class="mark-group role-axis" aria-hidden="true"><g transform="translate(0.5,0.5)"><path class="background" aria-hidden="true" d="M0,0h0v0h0Z" pointer-events="none"/><g><g class="mark-rule role-axis-grid" pointer-events="none"><line transform="translate(0,400)" x2="600" y2="0" stroke="#ddd" stroke-width="1" opacity="1"/><line transform="translate(0,367)" x2="600" y2="0" stroke="#ddd" stroke-width="1" opacity="1"/><line transform="translate(0,333)" x2="600" y2="0" stroke="#ddd" stroke-width="1" opacity="1"/><line transform="translate(0,300)" x2="600" y2="0" stroke="#ddd" stroke-width="1" opacity="1"/><line transform="translate(0,267)" x2="600" y2="0" stroke="#ddd" stroke-width="1" opacity="1"/><line transform="translate(0,233)" x2="600" y2="0" stroke="#ddd" stroke-width="1" opacity="1"/><line transform="translate(0,200)" x2="600" y2="0" stroke="#ddd" stroke-width="1" opacity="1"/><line transform="translate(0,167)" x2="600" y2="0" stroke="#ddd" stroke-width="1" opacity="1"/><line transform="translate(0,133)" x2="600" y2="0" stroke="#ddd" stroke-width="1" opacity="1"/><line transform="translate(0,100)" x2="600" y2="0" stroke="#ddd" stroke-width="1" opacity="1"/><line transform="translate(0,67)" x2="600" y2="0" stroke="#ddd" stroke-width="1" opacity="1"/><line transform="translate(0,33)" x2="600" y2="0" stroke="#ddd" stroke-width="1" opacity="1"/><line transform="translate(0,0)" x2="600" y2="0" stroke="#ddd" stroke-width="1" opacity="1"/></g></g><path class="foreground" aria-hidden="true" d="" pointer-events="none" display="none"/></g></g><g class="mark-group role-axis" role="graphics-symbol" aria-roledescription="axis" aria-label="X-axis titled 'Fare_amount' for a linear scale with values from 6 to 36"><g transform="translate(0.5,400.5)"><path class="background" aria-hidden="true" d="M0,0h0v0h0Z" pointer-events="none"/><g><g class="mark-rule role-axis-tick" pointer-events="none"><line transform="translate(0,0)" x2="0" y2="5" stroke="#888" stroke-width="1" opacity="1"/><line transform="translate(40,0)" x2="0" y2="5" stroke="#888" stroke-width="1" opacity="1"/><line transform="translate(80,0)" x2="0" y2="5" stroke="#888" stroke-width="1" opacity="1"/><line transform="translate(120,0)" x2="0" y2="5" stroke="#888" stroke-width="1" opacity="1"/><line transform="translate(160,0)" x2="0" y2="5" stroke="#888" stroke-width="1" opacity="1"/><line transform="translate(200,0)" x2="0" y2="5" stroke="#888" stroke-width="1" opacity="1"/><line transform="translate(240,0)" x2="0" y2="5" stroke="#888" stroke-width="1" opacity="1"/><line transform="translate(280,0)" x2="0" y2="5" stroke="#888" stroke-width="1" opacity="1"/><line transform="translate(320,0)" x2="0" y2="5" stroke="#888" stroke-width="1" opacity="1"/><line transform="translate(360,0)" x2="0" y2="5" stroke="#888" stroke-width="1" opacity="1"/><line transform="translate(400,0)" x2="0" y2="5" stroke="#888" stroke-width="1" opacity="1"/><line transform="translate(440,0)" x2="0" y2="5" stroke="#888" stroke-width="1" opacity="1"/><line transform="translate(480,0)" x2="0" y2="5" stroke="#888" stroke-width="1" opacity="1"/><line transform="translate(520,0)" x2="0" y2="5" stroke="#888" stroke-width="1" opacity="1"/><line transform="translate(560,0)" x2="0" y2="5" stroke="#888" stroke-width="1" opacity="1"/><line transform="translate(600,0)" x2="0" y2="5" stroke="#888" stroke-width="1" opacity="1"/></g><g class="mark-text role-axis-label" pointer-events="none"><text text-anchor="start" transform="translate(0,15)" font-family="sans-serif" font-size="10px" fill="#000" opacity="1">6</text><text text-anchor="middle" transform="translate(40,15)" font-family="sans-serif" font-size="10px" fill="#000" opacity="1">8</text><text text-anchor="middle" transform="translate(80,15)" font-family="sans-serif" font-size="10px" fill="#000" opacity="1">10</text><text text-anchor="middle" transform="translate(120,15)" font-family="sans-serif" font-size="10px" fill="#000" opacity="1">12</text><text text-anchor="middle" transform="translate(160,15)" font-family="sans-serif" font-size="10px" fill="#000" opacity="1">14</text><text text-anchor="middle" transform="translate(200,15)" font-family="sans-serif" font-size="10px" fill="#000" opacity="1">16</text><text text-anchor="middle" transform="translate(240,15)" font-family="sans-serif" font-size="10px" fill="#000" opacity="1">18</text><text text-anchor="middle" transform="translate(280,15)" font-family="sans-serif" font-size="10px" fill="#000" opacity="1">20</text><text text-anchor="middle" transform="translate(320,15)" font-family="sans-serif" font-size="10px" fill="#000" opacity="1">22</text><text text-anchor="middle" transform="translate(360,15)" font-family="sans-serif" font-size="10px" fill="#000" opacity="1">24</text><text text-anchor="middle" transform="translate(400,15)" font-family="sans-serif" font-size="10px" fill="#000" opacity="1">26</text><text text-anchor="middle" transform="translate(439.99999999999994,15)" font-family="sans-serif" font-size="10px" fill="#000" opacity="1">28</text><text text-anchor="middle" transform="translate(480,15)" font-family="sans-serif" font-size="10px" fill="#000" opacity="1">30</text><text text-anchor="middle" transform="translate(520,15)" font-family="sans-serif" font-size="10px" fill="#000" opacity="1">32</text><text text-anchor="middle" transform="translate(560,15)" font-family="sans-serif" font-size="10px" fill="#000" opacity="1">34</text><text text-anchor="end" transform="translate(600,15)" font-family="sans-serif" font-size="10px" fill="#000" opacity="1">36</text></g><g class="mark-rule role-axis-domain" pointer-events="none"><line transform="translate(0,0)" x2="600" y2="0" stroke="#888" stroke-width="1" opacity="1"/></g><g class="mark-text role-axis-title" pointer-events="none"><text text-anchor="middle" transform="translate(300,30)" font-family="sans-serif" font-size="11px" font-weight="bold" fill="#000" opacity="1">Fare_amount</text></g></g><path class="foreground" aria-hidden="true" d="" pointer-events="none" display="none"/></g></g><g class="mark-group role-axis" role="graphics-symbol" aria-roledescription="axis" aria-label="Y-axis titled 'Density' for a linear scale with values from 0.000 to 0.024"><g transform="translate(0.5,0.5)"><path class="background" aria-hidden="true" d="M0,0h0v0h0Z" pointer-events="none"/><g><g class="mark-rule role-axis-tick" pointer-events="none"><line transform="translate(0,400)" x2="-5" y2="0" stroke="#888" stroke-width="1" opacity="1"/><line transform="translate(0,367)" x2="-5" y2="0" stroke="#888" stroke-width="1" opacity="1"/><line transform="translate(0,333)" x2="-5" y2="0" stroke="#888" stroke-width="1" opacity="1"/><line transform="translate(0,300)" x2="-5" y2="0" stroke="#888" stroke-width="1" opacity="1"/><line transform="translate(0,267)" x2="-5" y2="0" stroke="#888" stroke-width="1" opacity="1"/><line transform="translate(0,233)" x2="-5" y2="0" stroke="#888" stroke-width="1" opacity="1"/><line transform="translate(0,200)" x2="-5" y2="0" stroke="#888" stroke-width="1" opacity="1"/><line transform="translate(0,167)" x2="-5" y2="0" stroke="#888" stroke-width="1" opacity="1"/><line transform="translate(0,133)" x2="-5" y2="0" stroke="#888" stroke-width="1" opacity="1"/><line transform="translate(0,100)" x2="-5" y2="0" stroke="#888" stroke-width="1" opacity="1"/><line transform="translate(0,67)" x2="-5" y2="0" stroke="#888" stroke-width="1" opacity="1"/><line transform="translate(0,33)" x2="-5" y2="0" stroke="#888" stroke-width="1" opacity="1"/><line transform="translate(0,0)" x2="-5" y2="0" stroke="#888" stroke-width="1" opacity="1"/></g><g class="mark-text role-axis-label" pointer-events="none"><text text-anchor="end" transform="translate(-7,403)" font-family="sans-serif" font-size="10px" fill="#000" opacity="1">0.000</text><text text-anchor="end" transform="translate(-7,369.66666666666663)" font-family="sans-serif" font-size="10px" fill="#000" opacity="1">0.002</text><text text-anchor="end" transform="translate(-7,336.33333333333337)" font-family="sans-serif" font-size="10px" fill="#000" opacity="1">0.004</text><text text-anchor="end" transform="translate(-7,303)" font-family="sans-serif" font-size="10px" fill="#000" opacity="1">0.006</text><text text-anchor="end" transform="translate(-7,269.6666666666667)" font-family="sans-serif" font-size="10px" fill="#000" opacity="1">0.008</text><text text-anchor="end" transform="translate(-7,236.33333333333331)" font-family="sans-serif" font-size="10px" fill="#000" opacity="1">0.010</text><text text-anchor="end" transform="translate(-7,203)" font-family="sans-serif" font-size="10px" fill="#000" opacity="1">0.012</text><text text-anchor="end" transform="translate(-7,169.66666666666666)" font-family="sans-serif" font-size="10px" fill="#000" opacity="1">0.014</text><text text-anchor="end" transform="translate(-7,136.33333333333334)" font-family="sans-serif" font-size="10px" fill="#000" opacity="1">0.016</text><text text-anchor="end" transform="translate(-7,103.00000000000004)" font-family="sans-serif" font-size="10px" fill="#000" opacity="1">0.018</text><text text-anchor="end" transform="translate(-7,69.66666666666666)" font-family="sans-serif" font-size="10px" fill="#000" opacity="1">0.020</text><text text-anchor="end" transform="translate(-7,36.33333333333335)" font-family="sans-serif" font-size="10px" fill="#000" opacity="1">0.022</text><text text-anchor="end" transform="translate(-7,3)" font-family="sans-serif" font-size="10px" fill="#000" opacity="1">0.024</text></g><g class="mark-rule role-axis-domain" pointer-events="none"><line transform="translate(0,400)" x2="0" y2="-400" stroke="#888" stroke-width="1" opacity="1"/></g><g class="mark-text role-axis-title" pointer-events="none"><text text-anchor="middle" transform="translate(-36.0244140625,200) rotate(-90) translate(0,-2)" font-family="sans-serif" font-size="11px" font-weight="bold" fill="#000" opacity="1">Density</text></g></g><path class="foreground" aria-hidden="true" d="" pointer-events="none" display="none"/></g></g><g class="mark-area role-mark marks" role="graphics-object" aria-roledescription="area mark container"><path aria-label="Fare_amount: 7.9; Density: 0.0177789125156" role="graphics-symbol" aria-roledescription="area mark" d="M38,103.685L40.683,102.049L43.366,100.436L46.049,98.846L48.732,97.278L51.415,95.734L54.098,94.213L56.781,92.715L59.464,91.241L62.147,89.79L64.83,88.363L67.513,86.96L70.196,85.581L72.879,84.226L75.562,82.895L78.245,81.587L80.928,80.304L83.611,79.045L86.294,77.809L88.977,76.598L91.66,75.41L94.343,74.246L97.026,73.106L99.709,71.99L102.392,70.896L105.075,69.827L107.758,68.78L110.441,67.756L113.124,66.756L115.807,65.778L118.49,64.822L121.173,63.889L123.856,62.977L126.539,62.088L129.222,61.22L131.905,60.373L134.588,59.547L137.271,58.742L139.954,57.957L142.637,57.192L145.32,56.447L148.003,55.721L150.686,55.015L153.369,54.327L156.052,53.657L158.735,53.006L161.418,52.372L164.101,51.755L166.784,51.155L169.467,50.572L172.15,50.004L174.833,49.452L177.516,48.915L180.199,48.393L182.882,47.886L185.565,47.392L188.248,46.911L190.931,46.444L193.614,45.989L196.297,45.547L198.98,45.116L201.663,44.696L204.346,44.287L207.029,43.888L209.712,43.5L212.395,43.12L215.078,42.75L217.761,42.389L220.444,42.035L223.127,41.69L225.81,41.351L228.493,41.02L231.176,40.695L233.859,40.376L236.542,40.063L239.225,39.756L241.908,39.453L244.591,39.154L247.274,38.86L249.957,38.57L252.64,38.283L255.323,37.999L258.006,37.718L260.689,37.44L263.372,37.163L266.055,36.889L268.738,36.616L271.421,36.344L274.104,36.074L276.787,35.804L279.47,35.535L282.153,35.267L284.836,34.998L287.519,34.73L290.202,34.461L292.885,34.193L295.568,33.923L298.251,33.653L300.934,33.383L303.617,33.111L306.3,32.839L308.983,32.566L311.666,32.292L314.349,32.017L317.032,31.741L319.715,31.465L322.398,31.187L325.081,30.908L327.764,30.629L330.447,30.349L333.13,30.068L335.813,29.787L338.496,29.506L341.179,29.224L343.862,28.942L346.545,28.661L349.228,28.38L351.911,28.099L354.594,27.819L357.277,27.541L359.96,27.264L362.643,26.988L365.326,26.714L368.009,26.443L370.692,26.174L373.375,25.908L376.058,25.646L378.741,25.387L381.424,25.133L384.107,24.882L386.79,24.637L389.473,24.397L392.156,24.163L394.839,23.935L397.522,23.714L400.205,23.501L402.888,23.294L405.571,23.096L408.254,22.907L410.937,22.727L413.62,22.557L416.303,22.397L418.986,22.248L421.669,22.11L424.352,21.984L427.035,21.87L429.718,21.77L432.401,21.683L435.084,21.61L437.767,21.552L440.45,21.51L443.133,21.483L445.816,21.473L448.499,21.479L451.182,21.504L453.865,21.546L456.548,21.608L459.231,21.688L461.914,21.789L464.597,21.91L467.28,22.052L469.963,22.215L472.646,22.401L475.329,22.61L478.012,22.841L480.695,23.097L483.378,23.376L486.061,23.681L488.744,24.01L491.427,24.366L494.11,24.747L496.793,25.156L499.476,25.591L502.159,26.054L504.842,26.546L507.525,27.065L510.208,27.614L512.891,28.192L515.574,28.799L518.257,29.437L520.94,30.105L523.623,30.803L526.306,31.533L528.989,32.294L531.672,33.087L534.355,33.911L537.038,34.767L539.721,35.656L542.404,36.578L545.087,37.532L547.77,38.519L550.453,39.539L553.136,40.592L555.819,41.679L558.502,42.798L561.185,43.952L563.868,45.139L566.551,46.359L569.234,47.613L571.917,48.901L574.6,50.222L574.6,400L571.917,400L569.234,400L566.551,400L563.868,400L561.185,400L558.502,400L555.819,400L553.136,400L550.453,400L547.77,400L545.087,400L542.404,400L539.721,400L537.038,400L534.355,400L531.672,400L528.989,400L526.306,400L523.623,400L520.94,400L518.257,400L515.574,400L512.891,400L510.208,400L507.525,400L504.842,400L502.159,400L499.476,400L496.793,400L494.11,400L491.427,400L488.744,400L486.061,400L483.378,400L480.695,400L478.012,400L475.329,400L472.646,400L469.963,400L467.28,400L464.597,400L461.914,400L459.231,400L456.548,400L453.865,400L451.182,400L448.499,400L445.816,400L443.133,400L440.45,400L437.767,400L435.084,400L432.401,400L429.718,400L427.035,400L424.352,400L421.669,400L418.986,400L416.303,400L413.62,400L410.937,400L408.254,400L405.571,400L402.888,400L400.205,400L397.522,400L394.839,400L392.156,400L389.473,400L386.79,400L384.107,400L381.424,400L378.741,400L376.058,400L373.375,400L370.692,400L368.009,400L365.326,400L362.643,400L359.96,400L357.277,400L354.594,400L351.911,400L349.228,400L346.545,400L343.862,400L341.179,400L338.496,400L335.813,400L333.13,400L330.447,400L327.764,400L325.081,400L322.398,400L319.715,400L317.032,400L314.349,400L311.666,400L308.983,400L306.3,400L303.617,400L300.934,400L298.251,400L295.568,400L292.885,400L290.202,400L287.519,400L284.836,400L282.153,400L279.47,400L276.787,400L274.104,400L271.421,400L268.738,400L266.055,400L263.372,400L260.689,400L258.006,400L255.323,400L252.64,400L249.957,400L247.274,400L244.591,400L241.908,400L239.225,400L236.542,400L233.859,400L231.176,400L228.493,400L225.81,400L223.127,400L220.444,400L217.761,400L215.078,400L212.395,400L209.712,400L207.029,400L204.346,400L201.663,400L198.98,400L196.297,400L193.614,400L190.931,400L188.248,400L185.565,400L182.882,400L180.199,400L177.516,400L174.833,400L172.15,400L169.467,400L166.784,400L164.101,400L161.418,400L158.735,400L156.052,400L153.369,400L150.686,400L148.003,400L145.32,400L142.637,400L139.954,400L137.271,400L134.588,400L131.905,400L129.222,400L126.539,400L123.856,400L121.173,400L118.49,400L115.807,400L113.124,400L110.441,400L107.758,400L105.075,400L102.392,400L99.709,400L97.026,400L94.343,400L91.66,400L88.977,400L86.294,400L83.611,400L80.928,400L78.245,400L75.562,400L72.879,400L70.196,400L67.513,400L64.83,400L62.147,400L59.464,400L56.781,400L54.098,400L51.415,400L48.732,400L46.049,400L43.366,400L40.683,400L38,400Z" fill="#4c78a8"/></g><g class="mark-group role-title"><g transform="translate(300,-22)"><path class="background" aria-hidden="true" d="M0,0h0v0h0Z" pointer-events="none"/><g><g class="mark-text role-title-text" role="graphics-symbol" aria-roledescription="title" aria-label="Title text 'Density Chart'" pointer-events="none"><text text-anchor="middle" transform="translate(0,10)" font-family="sans-serif" font-size="13px" font-weight="bold" fill="#000" opacity="1">Density Chart</text></g></g><path class="foreground" aria-hidden="true" d="" pointer-events="none" display="none"/></g></g></g><path class="foreground" aria-hidden="true" d="" display="none"/></g></g></g></svg>