<svg xmlns="http://www.w3.org/2000/svg" xmlns:xlink="http://www.w3.org/1999/xlink" version="1.1" class="marks" width="659" height="464" viewBox="0 0 659 464"><rect width="659" height="464" fill="white"/><g fill="none" stroke-miterlimit="10" transform="translate(53,27)"><g class="mark-group role-frame root" role="graphics-object" aria-roledescription="group mark container"><g transform="translate(0,0)"><path class="background" aria-hidden="true" d="M0.5,0.5h600v400h-600Z" stroke="#ddd"/><g><g class="mark-group role-axis" aria-hidden="true"><g transform="translate(0.5,400.5)"><path class="background" aria-hidden="true" d="M0,0h0v0h0Z" pointer-events="none"/><g><g class="mark-rule role-axis-grid" pointer-events="none"><line transform="translate(0,-400)" x2="0" y2="400" stroke="#ddd" stroke-width="1" opacity="1"/><line transform="translate(38,-400)" x2="0" y2="400" stroke="#ddd" stroke-width="1" opacity="1"/><line transform="translate(75,-400)" x2="0" y2="400" stroke="#ddd" stroke-width="1" opacity="1"/><line transform="translate(113,-400)" x2="0" y2="400" stroke="#ddd" stroke-width="1" opacity="1"/><line transform="translate(150,-400)" x2="0" y2="400" stroke="#ddd" stroke-width="1" opacity="1"/><line transform="translate(188,-400)" x2="0" y2="400" stroke="#ddd" stroke-width="1" opacity="1"/><line transform="translate(225,-400)" x2="0" y2="400" stroke="#ddd" stroke-width="1" opacity="1"/><line transform="translate(263,-400)" x2="0" y2="400" stroke="#ddd" stroke-width="1" opacity="1"/><line transform="translate(300,-400)" x2="0" y2="400" stroke="#ddd" stroke-width="1" opacity="1"/><line transform="translate(338,-400)" x2="0" y2="400" stroke="#ddd" stroke-width="1" opacity="1"/><line transform="translate(375,-400)" x2="0" y2="400" stroke="#ddd" stroke-width="1" opacity="1"/><line transform="translate(413,-400)" x2="0" y2="400" stroke="#ddd" stroke-width="1" opacity="1"/><line transform="translate(450,-400)" x2="0" y2="400" stroke="#ddd" stroke-width="1" opacity="1"/><line transform="translate(488,-400)" x2="0" y2="400" stroke="#ddd" stroke-width="1" opacity="1"/><line transform="translate(525,-400)" x2="0" y2="400" stroke="#ddd" stroke-width="1" opacity="1"/><line transform="translate(563,-400)" x2="0" y2="400" stroke="#ddd" stroke-width="1" opacity="1"/><line transform="translate(600,-400)" x2="0" y2="400" stroke="#ddd" stroke-width="1" opacity="1"/></g></g><path class="foreground" aria-hidden="true" d="" pointer-events="none" display="none"/></g></g><g class="mark-group role-axis" aria-hidden="true"><g transform="translate(0.5,0.5)"><path class="background" aria-hidden="true" d="M0,0h0v0h0Z" pointer-events="none"/><g><g class="mark-rule role-axis-grid" pointer-events="none"><line transform="translate(0,400)" x2="600" y2="0" stroke="#ddd" stroke-width="1" opacity="1"/><line transform="translate(0,371)" x2="600" y2="0" stroke="#ddd" stroke-width="1" opacity="1"/><line transform="translate(0,343)" x2="600" y2="0" stroke="#ddd" stroke-width="1" opacity="1"/><line transform="translate(0,314)" x2="600" y2="0" stroke="#ddd" stroke-width="1" opacity="1"/><line transform="translate(0,286)" x2="600" y2="0" stroke="#ddd" stroke-width="1" opacity="1"/><line transform="translate(0,257)" x2="600" y2="0" stroke="#ddd" stroke-width="1" opacity="1"/><line transform="translate(0,229)" x2="600" y2="0" stroke="#ddd" stroke-width="1" opacity="1"/><line transform="translate(0,200)" x2="600" y2="0" stroke="#ddd" stroke-width="1" opacity="1"/><line transform="translate(0,171)" x2="600" y2="0" stroke="#ddd" stroke-width="1" opacity="1"/><line transform="translate(0,143)" x2="600" y2="0" stroke="#ddd" stroke-width="1" opacity="1"/><line transform="translate(0,114)" x2="600" y2="0" stroke="#ddd" stroke-width="1" opacity="1"/><line transform="translate(0,86)" x2="600" y2="0" stroke="#ddd" stroke-width="1" opacity="1"/><line transform="translate(0,57)" x2="600" y2="0" stroke="#ddd" stroke-width="1" opacity="1"/><line transform="translate(0,29)" x2="600" y2="0" stroke="#ddd" stroke-width="1" opacity="1"/><line transform="translate(0,0)" x2="600" y2="0" stroke="#ddd" stroke-width="1" opacity="1"/></g></g><path class="foreground" aria-hidden="true" d="" pointer-events="none" display="none"/></g></g><g class="mark-group role-axis" role="graphics-symbol" aria-roledescription="axis" aria-label="X-axis titled 'Fare_amount' for a linear scale with values from −200 to 600"><g transform="translate(0.5,400.5)"><path class="background" aria-hidden="true" d="M0,0h0v0h0Z" pointer-events="none"/><g><g class="mark-rule role-axis-tick" pointer-events="none"><line transform="translate(0,0)" x2="0" y2="5" stroke="#888" stroke-width="1" opacity="1"/><line transform="translate(38,0)" x2="0" y2="5" stroke="#888" stroke-width="1" opacity="1"/><line transform="translate(75,0)" x2="0" y2="5" stroke="#888" stroke-width="1" opacity="1"/><line transform="translate(113,0)" x2="0" y2="5" stroke="#888" stroke-width="1" opacity="1"/><line transform="translate(150,0)" x2="0" y2="5" stroke="#888" stroke-width="1" opacity="1"/><line transform="translate(188,0)" x2="0" y2="5" stroke="#888" stroke-width="1" opacity="1"/><line transform="translate(225,0)" x2="0" y2="5" stroke="#888" stroke-width="1" opacity="1"/><line transform="translate(263,0)" x2="0" y2="5" stroke="#888" stroke-width="1" opacity="1"/><line transform="translate(300,0)" x2="0" y2="5" stroke="#888" stroke-width="1" opacity="1"/><line transform="translate(338,0)" x2="0" y2="5" stroke="#888" stroke-width="1" opacity="1"/><line transform="translate(375,0)" x2="0" y2="5" stroke="#888" stroke-width="1" opacity="1"/><line transform="translate(413,0)" x2="0" y2="5" stroke="#888" stroke-width="1" opacity="1"/><line transform="translate(450,0)" x2="0" y2="5" stroke="#888" stroke-width="1" opacity="1"/><line transform="translate(488,0)" x2="0" y2="5" stroke="#888" stroke-width="1" opacity="1"/><line transform="translate(525,0)" x2="0" y2="5" stroke="#888" stroke-width="1" opacity="1"/><line transform="translate(563,0)" x2="0" y2="5" stroke="#888" stroke-width="1" opacity="1"/><line transform="translate(600,0)" x2="0" y2="5" stroke="#888" stroke-width="1" opacity="1"/></g><g class="mark-text role-axis-label" pointer-events="none"><text text-anchor="start" transform="translate(0,15)" font-family="sans-serif" font-size="10px" fill="#000" opacity="1">−200</text><text text-anchor="middle" transform="translate(37.5,15)" font-family="sans-serif" font-size="10px" fill="#000" opacity="1">−150</text><text text-anchor="middle" transform="translate(75,15)" font-family="sans-serif" font-size="10px" fill="#000" opacity="1">−100</text><text text-anchor="middle" transform="translate(112.5,15)" font-family="sans-serif" font-size="10px" fill="#000" opacity="1">−50</text><text text-anchor="middle" transform="translate(150,15)" font-family="sans-serif" font-size="10px" fill="#000" opacity="1">0</text><text text-anchor="middle" transform="translate(187.5,15)" font-family="sans-serif" font-size="10px" fill="#000" opacity="1">50</text><text text-anchor="middle" transform="translate(225,15)" font-family="sans-serif" font-size="10px" fill="#000" opacity="1">100</text><text text-anchor="middle" transform="translate(262.5,15)" font-family="sans-serif" font-size="10px" fill="#000" opacity="1">150</text><text text-anchor="middle" transform="translate(300,15)" font-family="sans-serif" font-size="10px" fill="#000" opacity="1">200</text><text text-anchor="middle" transform="translate(337.5,15)" font-family="sans-serif" font-size="10px" fill="#000" opacity="1">250</text><text text-anchor="middle" transform="translate(375,15)" font-family="sans-serif" font-size="10px" fill="#000" opacity="1">300</text><text text-anchor="middle" transform="translate(412.5,15)" font-family="sans-serif" font-size="10px" fill="#000" opacity="1">350</text><text text-anchor="middle" transform="translate(450,15)" font-family="sans-serif" font-size="10px" fill="#000" opacity="1">400</text><text text-anchor="middle" transform="translate(487.5,15)" font-family="sans-serif" font-size="10px" fill="#000" opacity="1">450</text><text text-anchor="middle" transform="translate(525,15)" font-family="sans-serif" font-size="10px" fill="#000" opacity="1">500</text><text text-anchor="middle" transform="translate(562.5,15)" font-family="sans-serif" font-size="10px" fill="#000" opacity="1">550</text><text text-anchor="end" transform="translate(600,15)" font-family="sans-serif" font-size="10px" fill="#000" opacity="1">600</text></g><g class="mark-rule role-axis-domain" pointer-events="none"><line transform="translate(0,0)" x2="600" y2="0" stroke="#888" stroke-width="1" opacity="1"/></g><g class="mark-text role-axis-title" pointer-events="none"><text text-anchor="middle" transform="translate(300,30)" font-family="sans-serif" font-size="11px" font-weight="bold" fill="#000" opacity="1">Fare_amount</text></g></g><path class="foreground" aria-hidden="true" d="" pointer-events="none" display="none"/></g></g><g class="mark-group role-axis" role="graphics-symbol" aria-roledescription="axis" aria-label="Y-axis titled 'Density' for a linear scale with values from 0.00 to 0.07"><g transform="translate(0.5,0.5)"><path class="background" aria-hidden="true" d="M0,0h0v0h0Z" pointer-events="none"/><g><g class="mark-rule role-axis-tick" pointer-events="none"><line transform="translate(0,400)" x2="-5" y2="0" stroke="#888" stroke-width="1" opacity="1"/><line transform="translate(0,371)" x2="-5" y2="0" stroke="#888" stroke-width="1" opacity="1"/><line transform="translate(0,343)" x2="-5" y2="0" stroke="#888" stroke-width="1" opacity="1"/><line transform="translate(0,314)" x2="-5" y2="0" stroke="#888" stroke-width="1" opacity="1"/><line transform="translate(0,286)" x2="-5" y2="0" stroke="#888" stroke-width="1" opacity="1"/><line transform="translate(0,257)" x2="-5" y2="0" stroke="#888" stroke-width="1" opacity="1"/><line transform="translate(0,229)" x2="-5" y2="0" stroke="#888" stroke-width="1" opacity="1"/><line transform="translate(0,200)" x2="-5" y2="0" stroke="#888" stroke-width="1" opacity="1"/><line transform="translate(0,171)" x2="-5" y2="0" stroke="#888" stroke-width="1" opacity="1"/><line transform="translate(0,143)" x2="-5" y2="0" stroke="#888" stroke-width="1" opacity="1"/><line transform="translate(0,114)" x2="-5" y2="0" stroke="#888" stroke-width="1" opacity="1"/><line transform="translate(0,86)" x2="-5" y2="0" stroke="#888" stroke-width="1" opacity="1"/><line transform="translate(0,57)" x2="-5" y2="0" stroke="#888" stroke-width="1" opacity="1"/><line transform="translate(0,29)" x2="-5" y2="0" stroke="#888" stroke-width="1" opacity="1"/><line transform="translate(0,0)" x2="-5" y2="0" stroke="#888" stroke-width="1" opacity="1"/></g><g class="mark-text role-axis-label" pointer-events="none"><text text-anchor="end" transform="translate(-7,403)" font-family="sans-serif" font-size="10px" fill="#000" opacity="1">0.000</text><text text-anchor="end" transform="translate(-7,374.42857142857144)" font-family="sans-serif" font-size="10px" fill="#000" opacity="1">0.005</text><text text-anchor="end" transform="translate(-7,345.8571428571429)" font-family="sans-serif" font-size="10px" fill="#000" opacity="1">0.010</text><text text-anchor="end" transform="translate(-7,317.28571428571433)" font-family="sans-serif" font-size="10px" fill="#000" opacity="1">0.015</text><text text-anchor="end" transform="translate(-7,288.7142857142857)" font-family="sans-serif" font-size="10px" fill="#000" opacity="1">0.020</text><text text-anchor="end" transform="translate(-7,260.1428571428571)" font-family="sans-serif" font-size="10px" fill="#000" opacity="1">0.025</text><text text-anchor="end" transform="translate(-7,231.5714285714286)" font-family="sans-serif" font-size="10px" fill="#000" opacity="1">0.030</text><text text-anchor="end" transform="translate(-7,203)" font-family="sans-serif" font-size="10px" fill="#000" opacity="1">0.035</text><text text-anchor="end" transform="translate(-7,174.42857142857144)" font-family="sans-serif" font-size="10px" fill="#000" opacity="1">0.040</text><text text-anchor="end" transform="translate(-7,145.8571428571429)" font-family="sans-serif" font-size="10px" fill="#000" opacity="1">0.045</text><text text-anchor="end" transform="translate(-7,117.28571428571428)" font-family="sans-serif" font-size="10px" fill="#000" opacity="1">0.050</text><text text-anchor="end" transform="translate(-7,88.71428571428572)" font-family="sans-serif" font-size="10px" fill="#000" opacity="1">0.055</text><text text-anchor="end" transform="translate(-7,60.14285714285721)" font-family="sans-serif" font-size="10px" fill="#000" opacity="1">0.060</text><text text-anchor="end" transform="translate(-7,31.571428571428605)" font-family="sans-serif" font-size="10px" fill="#000" opacity="1">0.065</text><text text-anchor="end" transform="translate(-7,3)" font-family="sans-serif" font-size="10px" fill="#000" opacity="1">0.070</text></g><g class="mark-rule role-axis-domain" pointer-events="none"><line transform="translate(0,400)" x2="0" y2="-400" stroke="#888" stroke-width="1" opacity="1"/></g><g class="mark-text role-axis-title" pointer-events="none"><text text-anchor="middle" transform="translate(-36.0244140625,200) rotate(-90) translate(0,-2)" font-family="sans-serif" font-size="11px" font-weight="bold" fill="#000" opacity="1">Density</text></g></g><path class="foreground" aria-hidden="true" d="" pointer-events="none" display="none"/></g></g><g class="mark-area role-mark marks" role="graphics-symbol" aria-roledescription="area mark container"><path d="M37.5,399.929L40.313,400L43.125,400L45.938,400L48.75,400L51.563,400L54.375,400L57.188,400L60,400L62.813,400L65.625,400L68.438,399.988L71.25,399.974L74.063,400L76.875,400L79.688,400L82.5,399.997L85.313,399.872L88.125,399.997L90.938,399.943L93.75,399.996L96.563,399.148L99.375,399.744L102.188,399.94L105,399.89L107.813,399.984L110.625,399.855L113.438,399.752L116.25,399.693L119.063,399.41L121.875,399.76L124.688,399.555L127.5,399.544L130.313,399.539L133.125,399.34L135.938,398.77L138.75,397.754L141.563,397.268L144.375,394.664L147.188,395.679L150,398.824L152.813,328.811L155.625,28.243L158.438,49.964L161.25,172.501L164.063,269.6L166.875,321.348L169.688,349.923L172.5,368.065L175.313,375.565L178.125,376.447L180.938,381.652L183.75,381.765L186.563,389.865L189.375,393.171L192.188,394.113L195,394.945L197.813,396.645L200.625,391.162L203.438,360.671L206.25,397.833L209.063,398.665L211.875,397.611L214.688,397.227L217.5,398.741L220.313,398.88L223.125,398.712L225.938,398.916L228.75,399.681L231.563,399.645L234.375,399.661L237.188,399.761L240,399.866L242.813,399.666L245.625,399.949L248.438,399.8L251.25,399.878L254.063,399.939L256.875,399.924L259.688,399.94L262.5,399.751L265.313,399.999L268.125,399.948L270.938,399.974L273.75,399.887L276.563,399.977L279.375,399.889L282.188,399.825L285,399.944L287.813,399.997L290.625,399.933L293.438,400L296.25,400L299.063,400L301.875,400L304.688,400L307.5,400L310.313,400L313.125,400L315.938,399.997L318.75,399.858L321.563,399.843L324.375,399.969L327.188,399.989L330,399.933L332.813,400L335.625,399.999L338.438,399.935L341.25,400L344.063,400L346.875,400L349.688,399.965L352.5,399.991L355.313,399.937L358.125,399.929L360.937,400L363.75,400L366.563,400L369.375,400L372.188,400L375,400L377.813,399.929L380.625,400L383.438,400L386.25,400L389.063,400L391.875,400L394.688,400L397.5,400L400.313,400L403.125,400L405.938,400L408.75,400L411.563,400L414.375,400L417.188,400L420,400L422.813,400L425.625,400L428.438,400L431.25,400L434.063,400L436.875,400L439.688,400L442.5,400L445.313,400L448.125,400L450.938,400L453.75,400L456.563,400L459.375,400L462.188,400L465,400L467.813,400L470.625,400L473.438,400L476.25,400L479.063,400L481.875,400L484.688,400L487.5,399.929L490.313,400L493.125,400L495.938,400L498.75,400L501.563,400L504.375,400L507.188,400L510,400L512.813,400L515.625,400L518.438,400L521.25,400L524.063,400L526.875,400L529.688,400L532.5,400L535.313,400L538.125,400L540.938,400L543.75,400L546.563,400L549.375,400L552.188,400L555,400L557.813,400L560.625,400L563.438,400L566.25,400L569.063,400L571.875,400L574.688,400L577.5,400L580.313,400L583.125,400L585.938,400L588.75,400L591.563,400L594.375,400L597.188,400L600,399.929L600,400L597.188,400L594.375,400L591.563,400L588.75,400L585.938,400L583.125,400L580.313,400L577.5,400L574.688,400L571.875,400L569.063,400L566.25,400L563.438,400L560.625,400L557.813,400L555,400L552.188,400L549.375,400L546.563,400L543.75,400L540.938,400L538.125,400L535.313,400L532.5,400L529.688,400L526.875,400L524.063,400L521.25,400L518.438,400L515.625,400L512.813,400L510,400L507.188,400L504.375,400L501.563,400L498.75,400L495.938,400L493.125,400L490.313,400L487.5,400L484.688,400L481.875,400L479.063,400L476.25,400L473.438,400L470.625,400L467.813,400L465,400L462.188,400L459.375,400L456.563,400L453.75,400L450.938,400L448.125,400L445.313,400L442.5,400L439.688,400L436.875,400L434.063,400L431.25,400L428.438,400L425.625,400L422.813,400L420,400L417.188,400L414.375,400L411.563,400L408.75,400L405.938,400L403.125,400L400.313,400L397.5,400L394.688,400L391.875,400L389.063,400L386.25,400L383.438,400L380.625,400L377.813,400L375,400L372.188,400L369.375,400L366.563,400L363.75,400L360.937,400L358.125,400L355.313,400L352.5,400L349.688,400L346.875,400L344.063,400L341.25,400L338.438,400L335.625,400L332.813,400L330,400L327.188,400L324.375,400L321.563,400L318.75,400L315.938,400L313.125,400L310.313,400L307.5,400L304.688,400L301.875,400L299.063,400L296.25,400L293.438,400L290.625,400L287.813,400L285,400L282.188,400L279.375,400L276.563,400L273.75,400L270.938,400L268.125,400L265.313,400L262.5,400L259.688,400L256.875,400L254.063,400L251.25,400L248.438,400L245.625,400L242.813,400L240,400L237.188,400L234.375,400L231.563,400L228.75,400L225.938,400L223.125,400L220.313,400L217.5,400L214.688,400L211.875,400L209.063,400L206.25,400L203.438,400L200.625,400L197.813,400L195,400L192.188,400L189.375,400L186.563,400L183.75,400L180.938,400L178.125,400L175.313,400L172.5,400L169.688,400L166.875,400L164.063,400L161.25,400L158.438,400L155.625,400L152.813,400L150,400L147.188,400L144.375,400L141.563,400L138.75,400L135.938,400L133.125,400L130.313,400L127.5,400L124.688,400L121.875,400L119.063,400L116.25,400L113.438,400L110.625,400L107.813,400L105,400L102.188,400L99.375,400L96.563,400L93.75,400L90.938,400L88.125,400L85.313,400L82.5,400L79.688,400L76.875,400L74.063,400L71.25,400L68.438,400L65.625,400L62.813,400L60,400L57.188,400L54.375,400L51.563,400L48.75,400L45.938,400L43.125,400L40.313,400L37.5,400Z" fill="#4c78a8"/></g><g class="mark-group role-title"><g transform="translate(300,-22)"><path class="background" aria-hidden="true" d="M0,0h0v0h0Z" pointer-events="none"/><g><g class="mark-text role-title-text" role="graphics-symbol" aria-roledescription="title" aria-label="Title text 'Fare_Amount_Density_Chart'" pointer-events="none"><text text-anchor="middle" transform="translate(0,10)" font-family="sans-serif" font-size="13px" font-weight="bold" fill="#000" opacity="1">Fare_Amount_Density_Chart</text></g></g><path class="foreground" aria-hidden="true" d="" pointer-events="none" display="none"/></g></g></g><path class="foreground" aria-hidden="true" d="" display="none"/></g></g></g></svg>